# This file uses centimeters as units for non-parametric coordinates.

mtllib Roof.mtl
g default
v -2.500000 -0.050000 3.000000
v 0.000000 -0.050000 3.000000
v 2.500000 -0.050000 3.000000
v -2.500000 0.050000 3.000000
v 0.000000 0.050000 3.000000
v 2.500000 0.050000 3.000000
v -2.500000 2.050000 0.000000
v 0.000000 2.050000 0.000000
v 2.500000 2.050000 0.000000
v -2.500000 0.050000 -3.000000
v 0.000000 0.050000 -3.000000
v 2.500000 0.050000 -3.000000
v -2.500000 -0.050000 -3.000000
v 0.000000 -0.050000 -3.000000
v 2.500000 -0.050000 -3.000000
v -2.500000 1.950000 0.000000
v 0.000000 1.950000 0.000000
v 2.500000 1.950000 0.000000
vt 0.375263 0.213203
vt 0.505370 0.215233
vt 0.635477 0.217263
vt 0.375182 0.218407
vt 0.505289 0.220437
vt 0.635396 0.222467
vt 0.372254 0.406050
vt 0.502361 0.408080
vt 0.632468 0.410110
vt 0.369326 0.593693
vt 0.499433 0.595723
vt 0.629540 0.597753
vt 0.369245 0.598897
vt 0.499352 0.600927
vt 0.629459 0.602957
vt 0.366317 0.786540
vt 0.496424 0.788570
vt 0.626531 0.790600
vt 0.363389 0.974183
vt 0.493496 0.976213
vt 0.623603 0.978243
vt 0.947734 0.222135
vt 0.789981 0.323785
vt 0.947653 0.227340
vt 0.789900 0.328989
vt 0.063007 0.208330
vt 0.217511 0.314852
vt 0.062925 0.213534
vt 0.217429 0.320056
vn 0.000000 0.000000 1.000000
vn 0.000000 0.000000 1.000000
vn 0.000000 0.000000 1.000000
vn 0.000000 0.000000 1.000000
vn 0.000000 0.000000 1.000000
vn 0.000000 0.000000 1.000000
vn 0.000000 0.832050 0.554700
vn 0.000000 0.832050 0.554700
vn 0.000000 1.000000 0.000000
vn 0.000000 1.000000 0.000000
vn 0.000000 0.832050 0.554700
vn 0.000000 1.000000 0.000000
vn 0.000000 0.832050 -0.554700
vn 0.000000 0.832050 -0.554700
vn 0.000000 0.832050 -0.554700
vn 0.000000 0.000000 -1.000000
vn 0.000000 0.000000 -1.000000
vn 0.000000 0.000000 -1.000000
vn 0.000000 0.000000 -1.000000
vn 0.000000 0.000000 -1.000000
vn 0.000000 0.000000 -1.000000
vn 0.000000 -0.832050 0.554700
vn 0.000000 -0.832050 0.554700
vn 0.000000 -1.000000 0.000000
vn 0.000000 -1.000000 0.000000
vn 0.000000 -0.832050 0.554700
vn 0.000000 -1.000000 0.000000
vn 0.000000 -0.832050 -0.554700
vn 0.000000 -0.832050 -0.554700
vn 0.000000 -0.832050 -0.554700
vn 1.000000 0.000000 0.000000
vn 1.000000 0.000000 0.000000
vn 1.000000 0.000000 0.000000
vn 1.000000 0.000000 0.000000
vn 1.000000 0.000000 0.000000
vn 1.000000 0.000000 0.000000
vn -1.000000 0.000000 0.000000
vn -1.000000 0.000000 0.000000
vn -1.000000 0.000000 0.000000
vn -1.000000 0.000000 0.000000
vn -1.000000 0.000000 0.000000
vn -1.000000 0.000000 0.000000
s 1
g pCube1
usemtl initialShadingGroup
f 1/1/1 2/2/2 5/5/3 4/4/4
f 2/2/2 3/3/5 6/6/6 5/5/3
s 2
f 4/4/7 5/5/8 8/8/9 7/7/10
f 5/5/8 6/6/11 9/9/12 8/8/9
f 7/7/10 8/8/9 11/11/13 10/10/14
f 8/8/9 9/9/12 12/12/15 11/11/13
s 3
f 10/10/16 11/11/17 14/14/18 13/13/19
f 11/11/17 12/12/20 15/15/21 14/14/18
s 4
f 13/13/22 14/14/23 17/17/24 16/16/25
f 14/14/23 15/15/26 18/18/27 17/17/24
f 16/16/25 17/17/24 2/20/28 1/19/29
f 17/17/24 18/18/27 3/21/30 2/20/28
s 5
f 18/23/31 15/22/32 12/24/33 9/25/34
f 3/3/35 18/23/31 9/25/34 6/6/36
s 6
f 13/26/37 16/27/38 7/29/39 10/28/40
f 16/27/38 1/1/41 4/4/42 7/29/39
