# This file uses centimeters as units for non-parametric coordinates.

mtllib Lamp.mtl
g default
v -0.755129 2.226566 -0.022044
v -0.780491 2.228741 -0.022044
v -0.793171 2.229828 -0.000000
v -0.780491 2.228741 0.022044
v -0.755129 2.226566 0.022044
v -0.742448 2.225479 0.000000
v -0.679777 3.584894 -0.022044
v -0.705138 3.587069 -0.022044
v -0.717819 3.588156 -0.000000
v -0.705138 3.587069 0.022044
v -0.679777 3.584894 0.022044
v -0.667096 3.583808 0.000000
v -0.755129 2.177361 -0.022044
v -0.780490 2.179536 -0.022044
v -0.793171 2.180623 -0.000000
v -0.780490 2.179536 0.022044
v -0.755129 2.177361 0.022044
v -0.742448 2.176274 0.000000
v -0.747270 2.161047 -0.022044
v -0.769179 2.148088 -0.022044
v -0.780134 2.141608 -0.000000
v -0.769179 2.148088 0.022044
v -0.747270 2.161047 0.022044
v -0.736316 2.167526 0.000000
v -0.674520 2.133430 -0.022044
v -0.687986 2.111829 -0.022044
v -0.694719 2.101029 -0.000000
v -0.687986 2.111829 0.022044
v -0.674520 2.133430 0.022044
v -0.667786 2.144230 0.000000
v -0.630878 3.663883 -0.022044
v -0.648132 3.682598 -0.022044
v -0.656759 3.691956 -0.000000
v -0.648132 3.682598 0.022044
v -0.630878 3.663883 0.022044
v -0.622251 3.654526 0.000000
v -0.305495 3.771227 -0.022044
v -0.315290 3.794722 -0.022044
v -0.320187 3.806469 -0.000000
v -0.315290 3.794722 0.022044
v -0.305495 3.771227 0.022044
v -0.300598 3.759480 0.000000
v 0.000000 3.770250 -0.022044
v 0.000000 3.795698 -0.022044
v 0.000000 3.808423 -0.000000
v 0.000000 3.795698 0.022044
v 0.000000 3.770250 0.022044
v 0.000000 3.757526 0.000000
v 0.755129 2.226566 -0.022044
v 0.780491 2.228741 -0.022044
v 0.793171 2.229828 -0.000000
v 0.780491 2.228741 0.022044
v 0.755129 2.226566 0.022044
v 0.742449 2.225480 -0.000000
v 0.679777 3.584894 -0.022044
v 0.705138 3.587069 -0.022044
v 0.717819 3.588156 -0.000000
v 0.705138 3.587069 0.022044
v 0.679777 3.584894 0.022044
v 0.667096 3.583808 0.000000
v 0.755129 2.177361 -0.022044
v 0.780490 2.179536 -0.022044
v 0.793171 2.180623 -0.000000
v 0.780490 2.179536 0.022044
v 0.755129 2.177361 0.022044
v 0.742448 2.176274 -0.000000
v 0.747270 2.161047 -0.022044
v 0.769179 2.148088 -0.022044
v 0.780134 2.141608 -0.000000
v 0.769179 2.148088 0.022044
v 0.747270 2.161047 0.022044
v 0.736316 2.167526 -0.000000
v 0.674520 2.133430 -0.022044
v 0.687986 2.111829 -0.022044
v 0.694719 2.101029 -0.000000
v 0.687986 2.111829 0.022044
v 0.674520 2.133430 0.022044
v 0.667787 2.144230 -0.000000
v 0.630878 3.663883 -0.022044
v 0.648132 3.682598 -0.022044
v 0.656759 3.691956 -0.000000
v 0.648132 3.682598 0.022044
v 0.630878 3.663883 0.022044
v 0.622251 3.654527 0.000000
v 0.305495 3.771227 -0.022044
v 0.315290 3.794723 -0.022044
v 0.320187 3.806469 -0.000000
v 0.315290 3.794723 0.022044
v 0.305495 3.771227 0.022044
v 0.300598 3.759480 0.000000
vt 0.961923 0.922584
vt 0.933257 0.922517
vt 0.933065 0.850246
vt 0.961613 0.850217
vt 0.904695 0.922495
vt 0.904704 0.850234
vt 0.876138 0.922517
vt 0.876345 0.850246
vt 0.847496 0.922585
vt 0.847817 0.850216
vt 0.818704 0.922631
vt 0.990755 0.850199
vt 0.956185 0.924905
vt 0.929159 0.924478
vt 0.904654 0.924317
vt 0.880128 0.924481
vt 0.853162 0.924919
vt 0.818704 0.925250
vt 0.954692 0.925839
vt 0.928216 0.925544
vt 0.904563 0.925421
vt 0.880981 0.925550
vt 0.854680 0.925849
vt 0.818705 0.925819
vt 0.962080 0.929673
vt 0.933405 0.929673
vt 0.904730 0.929673
vt 0.876055 0.929673
vt 0.847380 0.929673
vt 0.818704 0.929673
vt 0.932154 0.846154
vt 0.959759 0.845853
vt 0.904440 0.846299
vt 0.876790 0.846157
vt 0.849392 0.845856
vt 0.990755 0.845740
vt 0.933112 0.828170
vt 0.961228 0.827871
vt 0.904643 0.828314
vt 0.876177 0.828172
vt 0.848112 0.827872
vt 0.990755 0.827726
vt 0.933376 0.811723
vt 0.962041 0.811723
vt 0.904730 0.811721
vt 0.876083 0.811719
vt 0.847418 0.811719
vt 0.990755 0.811721
vt 0.961942 0.700859
vt 0.961641 0.773221
vt 0.933115 0.773204
vt 0.933302 0.700922
vt 0.904755 0.773199
vt 0.904753 0.700951
vt 0.876396 0.773204
vt 0.876193 0.700922
vt 0.847845 0.773221
vt 0.847533 0.700859
vt 0.818704 0.773243
vt 0.990755 0.700811
vt 0.929162 0.698945
vt 0.956189 0.698520
vt 0.904656 0.699109
vt 0.880131 0.698946
vt 0.853088 0.698530
vt 0.990755 0.698192
vt 0.928277 0.697882
vt 0.954637 0.697588
vt 0.904700 0.698009
vt 0.881073 0.697886
vt 0.854649 0.697596
vt 0.990755 0.697623
vt 0.933405 0.693769
vt 0.962080 0.693769
vt 0.904730 0.693769
vt 0.876055 0.693769
vt 0.847380 0.693769
vt 0.990755 0.693769
vt 0.960068 0.777586
vt 0.932670 0.777285
vt 0.905019 0.777144
vt 0.877305 0.777288
vt 0.849699 0.777589
vt 0.818704 0.777702
vt 0.961348 0.795570
vt 0.933282 0.795270
vt 0.904816 0.795128
vt 0.876348 0.795272
vt 0.848231 0.795571
vt 0.818704 0.795716
vt 0.990755 0.795716
vt 0.818704 0.811721
vt 0.990755 0.777702
vt 0.990755 0.773243
vt 0.818705 0.697623
vt 0.818704 0.693769
vt 0.818705 0.698192
vt 0.818705 0.700811
vt 0.818704 0.827726
vt 0.818705 0.845740
vt 0.818704 0.850199
vt 0.990755 0.925819
vt 0.990755 0.929673
vt 0.990755 0.925250
vt 0.990755 0.922631
vn 0.505708 -0.027108 -0.862279
vn -0.493273 0.026373 -0.869475
vn -0.512881 0.049524 -0.857030
vn 0.481846 -0.039217 -0.875378
vn -0.998566 0.053526 -0.000000
vn -0.996178 0.087348 0.000000
vn -0.493273 0.026373 0.869475
vn -0.512880 0.049523 0.857030
vn 0.505708 -0.027108 0.862279
vn 0.481846 -0.039217 0.875378
vn 0.998574 -0.053389 0.000000
vn 0.996051 -0.088783 0.000000
vn 0.434395 0.041635 -0.899759
vn -0.555810 -0.087373 -0.826705
vn -0.991565 -0.129614 -0.000000
vn -0.555811 -0.087373 0.826705
vn 0.434395 0.041635 0.899760
vn 0.991125 0.132936 0.000000
vn 0.160305 0.311566 -0.936605
vn -0.397499 -0.535678 -0.745013
vn -0.628554 -0.777766 0.000000
vn -0.397499 -0.535679 0.745012
vn 0.160306 0.311567 0.936605
vn 0.422437 0.906392 0.000000
vn 0.192522 0.534249 -0.823112
vn -0.223013 -0.483562 -0.846423
vn -0.418795 -0.908081 0.000000
vn -0.223014 -0.483564 0.846422
vn 0.192523 0.534251 0.823110
vn 0.339020 0.940779 0.000000
vn -0.286169 0.535086 -0.794853
vn 0.179093 -0.360923 -0.915238
vn -0.480715 0.876877 0.000000
vn -0.286169 0.535085 0.794853
vn 0.179093 -0.360923 0.915238
vn 0.434420 -0.900710 0.000000
vn -0.089561 0.544710 -0.833829
vn 0.083501 -0.463798 -0.881997
vn -0.185181 0.982704 0.000000
vn -0.089561 0.544710 0.833829
vn 0.083501 -0.463798 0.881997
vn 0.153296 -0.988180 -0.000000
vn -0.000000 0.521346 -0.853345
vn -0.000000 -0.509676 -0.860367
vn -0.000001 1.000000 0.000000
vn -0.000000 0.521346 0.853345
vn -0.000000 -0.509676 0.860367
vn 0.000000 -1.000000 -0.000000
vn -0.505705 -0.027107 -0.862281
vn -0.481847 -0.039217 -0.875377
vn 0.512879 0.049523 -0.857031
vn 0.493272 0.026373 -0.869475
vn 0.996178 0.087348 -0.000000
vn 0.998566 0.053526 -0.000000
vn 0.512879 0.049523 0.857031
vn 0.493272 0.026373 0.869475
vn -0.481847 -0.039217 0.875378
vn -0.505704 -0.027107 0.862281
vn -0.996051 -0.088783 0.000000
vn -0.998574 -0.053389 0.000000
vn 0.555811 -0.087374 -0.826704
vn -0.434398 0.041636 -0.899758
vn 0.991565 -0.129614 0.000000
vn 0.555811 -0.087373 0.826704
vn -0.434397 0.041635 0.899759
vn -0.991125 0.132937 0.000001
vn 0.397499 -0.535680 -0.745011
vn -0.160306 0.311565 -0.936605
vn 0.628553 -0.777767 0.000000
vn 0.397499 -0.535680 0.745012
vn -0.160305 0.311564 0.936606
vn -0.422438 0.906392 0.000001
vn 0.223013 -0.483564 -0.846422
vn -0.192522 0.534247 -0.823113
vn 0.418794 -0.908081 0.000000
vn 0.223013 -0.483564 0.846422
vn -0.192522 0.534247 0.823113
vn -0.339020 0.940779 0.000000
vn -0.179094 -0.360922 -0.915238
vn 0.286170 0.535085 -0.794853
vn 0.480717 0.876876 0.000000
vn 0.286170 0.535085 0.794853
vn -0.179094 -0.360921 0.915238
vn -0.434416 -0.900712 -0.000000
vn -0.083501 -0.463795 -0.881999
vn 0.089560 0.544710 -0.833828
vn 0.185181 0.982704 0.000000
vn 0.089560 0.544711 0.833828
vn -0.083501 -0.463795 0.881999
vn -0.153294 -0.988181 -0.000000
s 1
g pCylinder4 group2
usemtl lambert3SG
f 1/1/1 2/2/2 8/3/3 7/4/4
f 2/2/2 3/5/5 9/6/6 8/3/3
f 3/5/5 4/7/7 10/8/8 9/6/6
f 4/7/7 5/9/9 11/10/10 10/8/8
f 5/9/9 6/11/11 12/101/12 11/10/10
f 6/105/11 1/1/1 7/4/4 12/12/12
f 2/2/2 1/1/1 13/13/13 14/14/14
f 3/5/5 2/2/2 14/14/14 15/15/15
f 4/7/7 3/5/5 15/15/15 16/16/16
f 5/9/9 4/7/7 16/16/16 17/17/17
f 6/11/11 5/9/9 17/17/17 18/18/18
f 1/1/1 6/105/11 18/104/18 13/13/13
f 14/14/14 13/13/13 19/19/19 20/20/20
f 15/15/15 14/14/14 20/20/20 21/21/21
f 16/16/16 15/15/15 21/21/21 22/22/22
f 17/17/17 16/16/16 22/22/22 23/23/23
f 18/18/18 17/17/17 23/23/23 24/24/24
f 13/13/13 18/104/18 24/102/24 19/19/19
f 20/20/20 19/19/19 25/25/25 26/26/26
f 21/21/21 20/20/20 26/26/26 27/27/27
f 22/22/22 21/21/21 27/27/27 28/28/28
f 23/23/23 22/22/22 28/28/28 29/29/29
f 24/24/24 23/23/23 29/29/29 30/30/30
f 19/19/19 24/102/24 30/103/30 25/25/25
f 7/4/4 8/3/3 32/31/31 31/32/32
f 8/3/3 9/6/6 33/33/33 32/31/31
f 9/6/6 10/8/8 34/34/34 33/33/33
f 10/8/8 11/10/10 35/35/35 34/34/34
f 11/10/10 12/101/12 36/100/36 35/35/35
f 12/12/12 7/4/4 31/32/32 36/36/36
f 31/32/32 32/31/31 38/37/37 37/38/38
f 32/31/31 33/33/33 39/39/39 38/37/37
f 33/33/33 34/34/34 40/40/40 39/39/39
f 34/34/34 35/35/35 41/41/41 40/40/40
f 35/35/35 36/100/36 42/99/42 41/41/41
f 36/36/36 31/32/32 37/38/38 42/42/42
f 37/38/38 38/37/37 44/43/43 43/44/44
f 38/37/37 39/39/39 45/45/45 44/43/43
f 39/39/39 40/40/40 46/46/46 45/45/45
f 40/40/40 41/41/41 47/47/47 46/46/46
f 41/41/41 42/99/42 48/92/48 47/47/47
f 42/42/42 37/38/38 43/44/44 48/48/48
f 49/49/49 55/50/50 56/51/51 50/52/52
f 50/52/52 56/51/51 57/53/53 51/54/54
f 51/54/54 57/53/53 58/55/55 52/56/56
f 52/56/56 58/55/55 59/57/57 53/58/58
f 53/58/58 59/57/57 60/59/59 54/98/60
f 54/60/60 60/94/59 55/50/50 49/49/49
f 50/52/52 62/61/61 61/62/62 49/49/49
f 51/54/54 63/63/63 62/61/61 50/52/52
f 52/56/56 64/64/64 63/63/63 51/54/54
f 53/58/58 65/65/65 64/64/64 52/56/56
f 54/98/60 66/97/66 65/65/65 53/58/58
f 49/49/49 61/62/62 66/66/66 54/60/60
f 62/61/61 68/67/67 67/68/68 61/62/62
f 63/63/63 69/69/69 68/67/67 62/61/61
f 64/64/64 70/70/70 69/69/69 63/63/63
f 65/65/65 71/71/71 70/70/70 64/64/64
f 66/97/66 72/95/72 71/71/71 65/65/65
f 61/62/62 67/68/68 72/72/72 66/66/66
f 68/67/67 74/73/73 73/74/74 67/68/68
f 69/69/69 75/75/75 74/73/73 68/67/67
f 70/70/70 76/76/76 75/75/75 69/69/69
f 71/71/71 77/77/77 76/76/76 70/70/70
f 72/95/72 78/96/78 77/77/77 71/71/71
f 67/68/68 73/74/74 78/78/78 72/72/72
f 55/50/50 79/79/79 80/80/80 56/51/51
f 56/51/51 80/80/80 81/81/81 57/53/53
f 57/53/53 81/81/81 82/82/82 58/55/55
f 58/55/55 82/82/82 83/83/83 59/57/57
f 59/57/57 83/83/83 84/84/84 60/59/59
f 60/94/59 84/93/84 79/79/79 55/50/50
f 79/79/79 85/85/85 86/86/86 80/80/80
f 80/80/80 86/86/86 87/87/87 81/81/81
f 81/81/81 87/87/87 88/88/88 82/82/82
f 82/82/82 88/88/88 89/89/89 83/83/83
f 83/83/83 89/89/89 90/90/90 84/84/84
f 84/93/84 90/91/90 85/85/85 79/79/79
f 85/85/85 43/44/44 44/43/43 86/86/86
f 86/86/86 44/43/43 45/45/45 87/87/87
f 87/87/87 45/45/45 46/46/46 88/88/88
f 88/88/88 46/46/46 47/47/47 89/89/89
f 89/89/89 47/47/47 48/92/48 90/90/90
f 90/91/90 48/48/48 43/44/44 85/85/85
g default
v 0.439467 2.375864 -0.142791
v 0.373833 2.375864 -0.271605
v 0.271605 2.375864 -0.373833
v 0.142791 2.375864 -0.439467
v 0.000000 2.375864 -0.462083
v -0.142791 2.375864 -0.439467
v -0.271605 2.375864 -0.373833
v -0.373832 2.375864 -0.271605
v -0.439467 2.375864 -0.142791
v -0.462082 2.375864 0.000000
v -0.439467 2.375864 0.142791
v -0.373832 2.375864 0.271605
v -0.271605 2.375864 0.373832
v -0.142791 2.375864 0.439466
v -0.000000 2.375864 0.462082
v 0.142791 2.375864 0.439466
v 0.271605 2.375864 0.373832
v 0.373832 2.375864 0.271605
v 0.439466 2.375864 0.142791
v 0.462082 2.375864 0.000000
v 0.439467 2.644367 -0.142791
v 0.373833 2.644367 -0.271605
v 0.271605 2.644367 -0.373833
v 0.142791 2.644367 -0.439467
v 0.000000 2.644367 -0.462083
v -0.142791 2.644367 -0.439467
v -0.271605 2.644367 -0.373832
v -0.373832 2.644367 -0.271605
v -0.439467 2.644367 -0.142791
v -0.462082 2.644367 0.000000
v -0.439467 2.644367 0.142791
v -0.373832 2.644367 0.271605
v -0.271605 2.644367 0.373832
v -0.142791 2.644367 0.439466
v -0.000000 2.644367 0.462082
v 0.142791 2.644367 0.439466
v 0.271605 2.644367 0.373832
v 0.373832 2.644367 0.271605
v 0.439466 2.644367 0.142791
v 0.462082 2.644367 0.000000
v 0.000000 2.375864 0.000000
v 0.353764 2.719845 -0.114945
v 0.300930 2.719845 -0.218638
v 0.218638 2.719845 -0.300930
v 0.114945 2.719845 -0.353764
v -0.000000 2.719845 -0.371970
v -0.114945 2.719845 -0.353764
v -0.218638 2.719845 -0.300930
v -0.300930 2.719845 -0.218638
v -0.353764 2.719845 -0.114945
v -0.371969 2.719845 -0.000000
v -0.353764 2.719845 0.114945
v -0.300930 2.719845 0.218638
v -0.218638 2.719845 0.300929
v -0.114945 2.719845 0.353764
v -0.000000 2.719845 0.371969
v 0.114945 2.719845 0.353764
v 0.218638 2.719845 0.300929
v 0.300929 2.719845 0.218638
v 0.353764 2.719845 0.114945
v 0.371969 2.719845 -0.000000
v 0.353764 2.825342 -0.114945
v 0.300930 2.825342 -0.218638
v 0.218638 2.825342 -0.300930
v 0.114945 2.825342 -0.353764
v -0.000000 2.825342 -0.371970
v -0.114945 2.825342 -0.353764
v -0.218638 2.825342 -0.300930
v -0.300930 2.825342 -0.218638
v -0.353764 2.825342 -0.114945
v -0.371969 2.825342 -0.000000
v -0.353764 2.825342 0.114945
v -0.300930 2.825342 0.218638
v -0.218638 2.825342 0.300929
v -0.114945 2.825342 0.353764
v -0.000000 2.825342 0.371969
v 0.114945 2.825342 0.353764
v 0.218638 2.825342 0.300929
v 0.300929 2.825342 0.218638
v 0.353764 2.825342 0.114945
v 0.371969 2.825342 -0.000000
v 0.530469 2.839828 -0.172360
v 0.451244 2.839828 -0.327848
v 0.327848 2.839828 -0.451244
v 0.172360 2.839828 -0.530468
v 0.000000 2.839828 -0.557768
v -0.172360 2.839828 -0.530468
v -0.327848 2.839828 -0.451243
v -0.451243 2.839828 -0.327848
v -0.530468 2.839828 -0.172360
v -0.557768 2.839828 0.000000
v -0.530468 2.839828 0.172360
v -0.451243 2.839828 0.327848
v -0.327848 2.839828 0.451243
v -0.172360 2.839828 0.530468
v -0.000000 2.839828 0.557768
v 0.172360 2.839828 0.530468
v 0.327848 2.839828 0.451243
v 0.451243 2.839828 0.327848
v 0.530468 2.839828 0.172360
v 0.557767 2.839828 0.000000
v 0.353764 2.901211 -0.114945
v 0.300930 2.901211 -0.218638
v 0.000000 2.901211 -0.000000
v 0.218638 2.901211 -0.300930
v 0.114945 2.901211 -0.353764
v -0.000000 2.901211 -0.371970
v -0.114945 2.901211 -0.353764
v -0.218638 2.901211 -0.300930
v -0.300930 2.901211 -0.218638
v -0.353764 2.901211 -0.114945
v -0.371969 2.901211 -0.000000
v -0.353764 2.901211 0.114945
v -0.300930 2.901211 0.218638
v -0.218638 2.901211 0.300929
v -0.114945 2.901211 0.353764
v -0.000000 2.901211 0.371969
v 0.114945 2.901211 0.353764
v 0.218638 2.901211 0.300929
v 0.300929 2.901211 0.218638
v 0.353764 2.901211 0.114945
v 0.371969 2.901211 -0.000000
vt 0.252580 0.181330
vt 0.265690 0.180166
vt 0.269429 0.223508
vt 0.254427 0.224055
vt 0.279649 0.177981
vt 0.285334 0.222433
vt 0.294932 0.174411
vt 0.302628 0.220634
vt 0.312083 0.168788
vt 0.321810 0.217840
vt 0.331762 0.160178
vt 0.343352 0.213656
vt 0.354820 0.147036
vt 0.367710 0.207540
vt 0.382455 0.127007
vt 0.395270 0.198894
vt 0.416449 0.096307
vt 0.426137 0.187500
vt 0.459667 0.048761
vt 0.020082 0.174726
vt 0.063280 0.096253
vt 0.053596 0.187437
vt 0.097257 0.126901
vt 0.084445 0.198768
vt 0.124869 0.146886
vt 0.111988 0.207357
vt 0.147919 0.159985
vt 0.136321 0.213423
vt 0.167584 0.168573
vt 0.157842 0.217546
vt 0.184748 0.174181
vt 0.177024 0.220296
vt 0.200029 0.177793
vt 0.194347 0.222111
vt 0.214012 0.180026
vt 0.210279 0.223269
vt 0.227152 0.181259
vt 0.225299 0.223929
vt 0.239853 0.181654
vt 0.239869 0.224186
vt 0.239875 0.048761
vt 0.252659 0.326633
vt 0.265930 0.327878
vt 0.239875 0.458591
vt 0.280011 0.330133
vt 0.295436 0.333765
vt 0.312708 0.339382
vt 0.332476 0.347955
vt 0.355553 0.360995
vt 0.383116 0.380853
vt 0.416876 0.411293
vt 0.020082 0.458591
vt 0.062884 0.411237
vt 0.096658 0.380746
vt 0.124228 0.360838
vt 0.147319 0.347763
vt 0.167079 0.339150
vt 0.184334 0.333519
vt 0.199725 0.329904
vt 0.213797 0.327724
vt 0.227022 0.326534
vt 0.239863 0.326231
vt 0.270217 0.244959
vt 0.254816 0.245094
vt 0.286534 0.244630
vt 0.304255 0.244031
vt 0.323851 0.243064
vt 0.345738 0.241633
vt 0.370272 0.239563
vt 0.397673 0.236654
vt 0.427763 0.232993
vt 0.020082 0.229871
vt 0.051976 0.232928
vt 0.082055 0.236526
vt 0.109447 0.239376
vt 0.133964 0.241403
vt 0.155835 0.242759
vt 0.175432 0.243652
vt 0.193165 0.244263
vt 0.209499 0.244683
vt 0.224910 0.244950
vt 0.239862 0.245084
vt 0.270196 0.266835
vt 0.254797 0.266526
vt 0.286516 0.267324
vt 0.304237 0.268035
vt 0.323825 0.269074
vt 0.345695 0.270606
vt 0.370218 0.272783
vt 0.397621 0.275619
vt 0.427730 0.278601
vt 0.020082 0.279364
vt 0.052015 0.278536
vt 0.082122 0.275488
vt 0.109524 0.272599
vt 0.134052 0.270375
vt 0.155921 0.268771
vt 0.175501 0.267664
vt 0.193214 0.266959
vt 0.209523 0.266561
vt 0.224913 0.266382
vt 0.239855 0.266379
vt 0.268648 0.297013
vt 0.254027 0.296164
vt 0.284180 0.298519
vt 0.301099 0.300901
vt 0.319902 0.304519
vt 0.341094 0.309961
vt 0.365252 0.318046
vt 0.392962 0.329759
vt 0.424582 0.346049
vt 0.020082 0.366793
vt 0.055173 0.345985
vt 0.086798 0.329632
vt 0.114516 0.317860
vt 0.138694 0.309736
vt 0.159901 0.304235
vt 0.178685 0.300566
vt 0.195565 0.298203
vt 0.211064 0.296776
vt 0.225672 0.296044
vt 0.239843 0.295849
vt 0.459667 0.458591
vt 0.459667 0.366793
vt 0.459667 0.279364
vt 0.459667 0.229871
vt 0.459667 0.174726
vt 0.020082 0.048761
vn 0.751937 -0.612290 -0.244319
vn 0.639636 -0.612291 -0.464722
vn 0.789011 0.221012 -0.573250
vn 0.927538 0.221012 -0.301374
vn 0.464722 -0.612291 -0.639636
vn 0.573250 0.221012 -0.789011
vn 0.244319 -0.612291 -0.751937
vn 0.301375 0.221012 -0.927538
vn 0.000000 -0.612290 -0.790633
vn 0.000000 0.221012 -0.975271
vn -0.244319 -0.612291 -0.751936
vn -0.301376 0.221012 -0.927538
vn -0.464723 -0.612290 -0.639636
vn -0.573250 0.221012 -0.789011
vn -0.639635 -0.612290 -0.464723
vn -0.789011 0.221012 -0.573250
vn -0.751937 -0.612290 -0.244319
vn -0.927538 0.221012 -0.301375
vn -0.790633 -0.612290 0.000000
vn -0.975271 0.221012 0.000000
vn -0.751937 -0.612290 0.244319
vn -0.927538 0.221012 0.301375
vn -0.639635 -0.612290 0.464723
vn -0.789011 0.221012 0.573250
vn -0.464722 -0.612290 0.639636
vn -0.573250 0.221012 0.789011
vn -0.244319 -0.612290 0.751937
vn -0.301375 0.221012 0.927538
vn 0.000000 -0.612290 0.790633
vn 0.000000 0.221012 0.975271
vn 0.244319 -0.612290 0.751937
vn 0.301376 0.221012 0.927538
vn 0.464722 -0.612290 0.639636
vn 0.573250 0.221012 0.789011
vn 0.639636 -0.612290 0.464723
vn 0.789011 0.221012 0.573250
vn 0.751937 -0.612290 0.244319
vn 0.927538 0.221012 0.301375
vn 0.790633 -0.612291 -0.000000
vn 0.975271 0.221012 0.000001
vn 0.000000 -1.000000 -0.000000
vn 0.185815 0.980728 -0.060375
vn 0.158063 0.980728 -0.114839
vn 0.000000 1.000000 -0.000000
vn 0.114840 0.980728 -0.158063
vn 0.060375 0.980728 -0.185815
vn 0.000000 0.980728 -0.195377
vn -0.060375 0.980728 -0.185815
vn -0.114840 0.980728 -0.158063
vn -0.158063 0.980728 -0.114840
vn -0.185815 0.980728 -0.060375
vn -0.195377 0.980728 0.000001
vn -0.185815 0.980728 0.060376
vn -0.158063 0.980728 0.114841
vn -0.114840 0.980728 0.158064
vn -0.060375 0.980728 0.185815
vn 0.000000 0.980728 0.195377
vn 0.060375 0.980728 0.185815
vn 0.114840 0.980728 0.158064
vn 0.158063 0.980728 0.114839
vn 0.185815 0.980728 0.060374
vn 0.195377 0.980728 -0.000000
vn 0.707908 0.484083 -0.514325
vn 0.832196 0.484083 -0.270396
vn 0.514324 0.484083 -0.707908
vn 0.270397 0.484083 -0.832196
vn 0.000000 0.484083 -0.875022
vn -0.270397 0.484083 -0.832196
vn -0.514325 0.484083 -0.707908
vn -0.707908 0.484083 -0.514325
vn -0.832196 0.484083 -0.270396
vn -0.875022 0.484083 0.000000
vn -0.832196 0.484083 0.270397
vn -0.707908 0.484083 0.514325
vn -0.514325 0.484083 0.707908
vn -0.270397 0.484083 0.832196
vn 0.000000 0.484083 0.875022
vn 0.270397 0.484083 0.832195
vn 0.514325 0.484083 0.707908
vn 0.707908 0.484083 0.514325
vn 0.832195 0.484083 0.270397
vn 0.875022 0.484083 0.000001
vn 0.356630 -0.897596 -0.259106
vn 0.419244 -0.897596 -0.136220
vn 0.259107 -0.897596 -0.356630
vn 0.136221 -0.897596 -0.419244
vn 0.000000 -0.897596 -0.440819
vn -0.136221 -0.897596 -0.419244
vn -0.259107 -0.897596 -0.356630
vn -0.356631 -0.897596 -0.259108
vn -0.419245 -0.897596 -0.136221
vn -0.440820 -0.897596 -0.000000
vn -0.419244 -0.897596 0.136220
vn -0.356631 -0.897596 0.259107
vn -0.259107 -0.897596 0.356631
vn -0.136221 -0.897596 0.419245
vn 0.000000 -0.897596 0.440819
vn 0.136221 -0.897596 0.419244
vn 0.259107 -0.897596 0.356630
vn 0.356631 -0.897596 0.259107
vn 0.419244 -0.897596 0.136221
vn 0.440820 -0.897596 0.000000
vn 0.808952 0.012950 -0.587732
vn 0.950978 0.012950 -0.308987
vn 0.587737 0.012950 -0.808948
vn 0.308992 0.012949 -0.950977
vn 0.000000 0.012949 -0.999916
vn -0.308991 0.012950 -0.950977
vn -0.587736 0.012949 -0.808949
vn -0.808950 0.012950 -0.587735
vn -0.950977 0.012950 -0.308989
vn -0.999916 0.012949 0.000003
vn -0.950977 0.012949 0.308992
vn -0.808950 0.012950 0.587735
vn -0.587735 0.012949 0.808950
vn -0.308990 0.012949 0.950977
vn 0.000000 0.012949 0.999916
vn 0.308992 0.012949 0.950977
vn 0.587736 0.012950 0.808949
vn 0.808950 0.012950 0.587735
vn 0.950977 0.012950 0.308991
vn 0.999916 0.012949 0.000003
s 1
g group2 pCylinder3
usemtl lambert3SG
f 91/106/91 92/107/92 112/108/93 111/109/94
f 92/107/92 93/110/95 113/111/96 112/108/93
f 93/110/95 94/112/97 114/113/98 113/111/96
f 94/112/97 95/114/99 115/115/100 114/113/98
f 95/114/99 96/116/101 116/117/102 115/115/100
f 96/116/101 97/118/103 117/119/104 116/117/102
f 97/118/103 98/120/105 118/121/106 117/119/104
f 98/120/105 99/122/107 119/123/108 118/121/106
f 99/122/107 100/124/109 120/232/110 119/123/108
f 100/233/109 101/126/111 121/127/112 120/125/110
f 101/126/111 102/128/113 122/129/114 121/127/112
f 102/128/113 103/130/115 123/131/116 122/129/114
f 103/130/115 104/132/117 124/133/118 123/131/116
f 104/132/117 105/134/119 125/135/120 124/133/118
f 105/134/119 106/136/121 126/137/122 125/135/120
f 106/136/121 107/138/123 127/139/124 126/137/122
f 107/138/123 108/140/125 128/141/126 127/139/124
f 108/140/125 109/142/127 129/143/128 128/141/126
f 109/142/127 110/144/129 130/145/130 129/143/128
f 110/144/129 91/106/91 111/109/94 130/145/130
f 92/107/92 91/106/91 131/146/131
f 93/110/95 92/107/92 131/146/131
f 94/112/97 93/110/95 131/146/131
f 95/114/99 94/112/97 131/146/131
f 96/116/101 95/114/99 131/146/131
f 97/118/103 96/116/101 131/146/131
f 98/120/105 97/118/103 131/146/131
f 99/122/107 98/120/105 131/146/131
f 100/124/109 99/122/107 131/146/131
f 101/126/111 100/233/109 131/146/131
f 102/128/113 101/126/111 131/146/131
f 103/130/115 102/128/113 131/146/131
f 104/132/117 103/130/115 131/146/131
f 105/134/119 104/132/117 131/146/131
f 106/136/121 105/134/119 131/146/131
f 107/138/123 106/136/121 131/146/131
f 108/140/125 107/138/123 131/146/131
f 109/142/127 108/140/125 131/146/131
f 110/144/129 109/142/127 131/146/131
f 91/106/91 110/144/129 131/146/131
f 192/147/132 193/148/133 194/149/134
f 193/148/133 195/150/135 194/149/134
f 195/150/135 196/151/136 194/149/134
f 196/151/136 197/152/137 194/149/134
f 197/152/137 198/153/138 194/149/134
f 198/153/138 199/154/139 194/149/134
f 199/154/139 200/155/140 194/149/134
f 200/155/140 201/156/141 194/149/134
f 201/156/141 202/228/142 194/149/134
f 202/157/142 203/158/143 194/149/134
f 203/158/143 204/159/144 194/149/134
f 204/159/144 205/160/145 194/149/134
f 205/160/145 206/161/146 194/149/134
f 206/161/146 207/162/147 194/149/134
f 207/162/147 208/163/148 194/149/134
f 208/163/148 209/164/149 194/149/134
f 209/164/149 210/165/150 194/149/134
f 210/165/150 211/166/151 194/149/134
f 211/166/151 212/167/152 194/149/134
f 212/167/152 192/147/132 194/149/134
f 111/109/94 112/108/93 133/168/153 132/169/154
f 112/108/93 113/111/96 134/170/155 133/168/153
f 113/111/96 114/113/98 135/171/156 134/170/155
f 114/113/98 115/115/100 136/172/157 135/171/156
f 115/115/100 116/117/102 137/173/158 136/172/157
f 116/117/102 117/119/104 138/174/159 137/173/158
f 117/119/104 118/121/106 139/175/160 138/174/159
f 118/121/106 119/123/108 140/176/161 139/175/160
f 119/123/108 120/232/110 141/231/162 140/176/161
f 120/125/110 121/127/112 142/178/163 141/177/162
f 121/127/112 122/129/114 143/179/164 142/178/163
f 122/129/114 123/131/116 144/180/165 143/179/164
f 123/131/116 124/133/118 145/181/166 144/180/165
f 124/133/118 125/135/120 146/182/167 145/181/166
f 125/135/120 126/137/122 147/183/168 146/182/167
f 126/137/122 127/139/124 148/184/169 147/183/168
f 127/139/124 128/141/126 149/185/170 148/184/169
f 128/141/126 129/143/128 150/186/171 149/185/170
f 129/143/128 130/145/130 151/187/172 150/186/171
f 130/145/130 111/109/94 132/169/154 151/187/172
f 132/169/154 133/168/153 153/188/173 152/189/174
f 133/168/153 134/170/155 154/190/175 153/188/173
f 134/170/155 135/171/156 155/191/176 154/190/175
f 135/171/156 136/172/157 156/192/177 155/191/176
f 136/172/157 137/173/158 157/193/178 156/192/177
f 137/173/158 138/174/159 158/194/179 157/193/178
f 138/174/159 139/175/160 159/195/180 158/194/179
f 139/175/160 140/176/161 160/196/181 159/195/180
f 140/176/161 141/231/162 161/230/182 160/196/181
f 141/177/162 142/178/163 162/198/183 161/197/182
f 142/178/163 143/179/164 163/199/184 162/198/183
f 143/179/164 144/180/165 164/200/185 163/199/184
f 144/180/165 145/181/166 165/201/186 164/200/185
f 145/181/166 146/182/167 166/202/187 165/201/186
f 146/182/167 147/183/168 167/203/188 166/202/187
f 147/183/168 148/184/169 168/204/189 167/203/188
f 148/184/169 149/185/170 169/205/190 168/204/189
f 149/185/170 150/186/171 170/206/191 169/205/190
f 150/186/171 151/187/172 171/207/192 170/206/191
f 151/187/172 132/169/154 152/189/174 171/207/192
f 152/189/174 153/188/173 173/208/193 172/209/194
f 153/188/173 154/190/175 174/210/195 173/208/193
f 154/190/175 155/191/176 175/211/196 174/210/195
f 155/191/176 156/192/177 176/212/197 175/211/196
f 156/192/177 157/193/178 177/213/198 176/212/197
f 157/193/178 158/194/179 178/214/199 177/213/198
f 158/194/179 159/195/180 179/215/200 178/214/199
f 159/195/180 160/196/181 180/216/201 179/215/200
f 160/196/181 161/230/182 181/229/202 180/216/201
f 161/197/182 162/198/183 182/218/203 181/217/202
f 162/198/183 163/199/184 183/219/204 182/218/203
f 163/199/184 164/200/185 184/220/205 183/219/204
f 164/200/185 165/201/186 185/221/206 184/220/205
f 165/201/186 166/202/187 186/222/207 185/221/206
f 166/202/187 167/203/188 187/223/208 186/222/207
f 167/203/188 168/204/189 188/224/209 187/223/208
f 168/204/189 169/205/190 189/225/210 188/224/209
f 169/205/190 170/206/191 190/226/211 189/225/210
f 170/206/191 171/207/192 191/227/212 190/226/211
f 171/207/192 152/189/174 172/209/194 191/227/212
f 172/209/194 173/208/193 193/148/133 192/147/132
f 173/208/193 174/210/195 195/150/135 193/148/133
f 174/210/195 175/211/196 196/151/136 195/150/135
f 175/211/196 176/212/197 197/152/137 196/151/136
f 176/212/197 177/213/198 198/153/138 197/152/137
f 177/213/198 178/214/199 199/154/139 198/153/138
f 178/214/199 179/215/200 200/155/140 199/154/139
f 179/215/200 180/216/201 201/156/141 200/155/140
f 180/216/201 181/229/202 202/228/142 201/156/141
f 181/217/202 182/218/203 203/158/143 202/157/142
f 182/218/203 183/219/204 204/159/144 203/158/143
f 183/219/204 184/220/205 205/160/145 204/159/144
f 184/220/205 185/221/206 206/161/146 205/160/145
f 185/221/206 186/222/207 207/162/147 206/161/146
f 186/222/207 187/223/208 208/163/148 207/162/147
f 187/223/208 188/224/209 209/164/149 208/163/148
f 188/224/209 189/225/210 210/165/150 209/164/149
f 189/225/210 190/226/211 211/166/151 210/165/150
f 190/226/211 191/227/212 212/167/152 211/166/151
f 191/227/212 172/209/194 192/147/132 212/167/152
g default
v 0.172301 0.575923 -0.125184
v 0.065813 0.575923 -0.202552
v -0.065813 0.575923 -0.202552
v -0.172301 0.575923 -0.125184
v -0.212976 0.575923 0.000000
v -0.172301 0.575923 0.125184
v -0.065813 0.575923 0.202552
v 0.065813 0.575923 0.202552
v 0.172301 0.575923 0.125184
v 0.212976 0.575923 -0.000000
v 0.410187 0.703542 -0.298018
v 0.156677 0.703542 -0.482203
v -0.156677 0.703542 -0.482203
v -0.410187 0.703542 -0.298018
v -0.507019 0.703542 0.000000
v -0.410187 0.703542 0.298018
v -0.156677 0.703542 0.482203
v 0.156677 0.703542 0.482203
v 0.410187 0.703542 0.298018
v 0.507019 0.703542 -0.000000
v 0.449335 0.819798 -0.326461
v 0.171631 0.819798 -0.528225
v -0.171631 0.819798 -0.528225
v -0.449335 0.819798 -0.326461
v -0.555408 0.819798 0.000000
v -0.449335 0.819798 0.326461
v -0.171631 0.819798 0.528225
v 0.171631 0.819798 0.528225
v 0.449335 0.819798 0.326461
v 0.555408 0.819798 0.000000
v 0.251182 2.377217 -0.182494
v 0.095943 2.377217 -0.295282
v -0.095943 2.377217 -0.295282
v -0.251182 2.377217 -0.182494
v -0.310477 2.377217 0.000000
v -0.251181 2.377217 0.182494
v -0.095943 2.377217 0.295282
v 0.095943 2.377217 0.295282
v 0.251182 2.377217 0.182494
v 0.310477 2.377217 0.000000
v 0.359291 2.225019 -0.261040
v 0.444108 2.225019 0.000000
v 0.359291 2.225019 0.261040
v 0.137237 2.225019 0.422372
v -0.137237 2.225019 0.422372
v -0.359291 2.225019 0.261040
v -0.444108 2.225019 0.000000
v -0.359291 2.225019 -0.261040
v -0.137237 2.225019 -0.422372
v 0.137237 2.225019 -0.422372
v 0.287586 2.337840 -0.208944
v 0.355476 2.337840 0.000000
v 0.287586 2.337840 0.208944
v 0.109848 2.337840 0.338078
v -0.109848 2.337840 0.338078
v -0.287586 2.337840 0.208944
v -0.355476 2.337840 0.000000
v -0.287586 2.337840 -0.208944
v -0.109848 2.337840 -0.338078
v 0.109848 2.337840 -0.338078
vt 0.725259 0.668823
vt 0.725254 0.719258
vt 0.696196 0.719731
vt 0.696194 0.668823
vt 0.754323 0.668823
vt 0.754307 0.718293
vt 0.783387 0.668823
vt 0.783371 0.716263
vt 0.812451 0.668823
vt 0.521810 0.710678
vt 0.550874 0.668823
vt 0.550893 0.716264
vt 0.579938 0.668823
vt 0.579960 0.718296
vt 0.609002 0.668823
vt 0.609018 0.719260
vt 0.638066 0.668823
vt 0.638075 0.719730
vt 0.667130 0.668823
vt 0.667133 0.719884
vt 0.725252 0.733274
vt 0.696190 0.733824
vt 0.754308 0.732169
vt 0.783376 0.730209
vt 0.521810 0.727120
vt 0.550888 0.730213
vt 0.579962 0.732170
vt 0.609017 0.733274
vt 0.638079 0.733826
vt 0.667138 0.733976
vt 0.725263 0.906257
vt 0.696202 0.905994
vt 0.754330 0.906880
vt 0.783389 0.908261
vt 0.812451 0.911180
vt 0.550872 0.908261
vt 0.579934 0.906886
vt 0.609000 0.906261
vt 0.638066 0.905992
vt 0.667131 0.905931
vt 0.696193 0.927209
vt 0.667132 0.927178
vt 0.638070 0.927210
vt 0.609003 0.927306
vt 0.579934 0.927531
vt 0.550869 0.928068
vt 0.812451 0.929913
vt 0.783392 0.928065
vt 0.754327 0.927530
vt 0.725259 0.927306
vt 0.696195 0.937721
vt 0.667130 0.937721
vt 0.638066 0.937721
vt 0.609002 0.937721
vt 0.579938 0.937721
vt 0.550874 0.937721
vt 0.521810 0.937721
vt 0.783387 0.937721
vt 0.754323 0.937721
vt 0.725259 0.937721
vt 0.521810 0.929913
vt 0.812451 0.937721
vt 0.521810 0.911180
vt 0.812451 0.727120
vt 0.812451 0.710678
vt 0.521810 0.668823
vn 0.123030 -0.917327 -0.378648
vn 0.208097 -0.739265 -0.640455
vn 0.544804 -0.739265 -0.395823
vn 0.322097 -0.917327 -0.234017
vn -0.123030 -0.917327 -0.378648
vn -0.208097 -0.739265 -0.640455
vn -0.322097 -0.917327 -0.234017
vn -0.544804 -0.739265 -0.395823
vn -0.398134 -0.917327 -0.000000
vn -0.673415 -0.739265 -0.000000
vn -0.322097 -0.917327 0.234017
vn -0.544804 -0.739265 0.395823
vn -0.123030 -0.917327 0.378648
vn -0.208097 -0.739265 0.640455
vn 0.123030 -0.917327 0.378648
vn 0.208097 -0.739265 0.640455
vn 0.322097 -0.917327 0.234017
vn 0.544804 -0.739265 0.395823
vn 0.398134 -0.917327 0.000000
vn 0.673415 -0.739265 0.000000
vn 0.308752 0.041387 -0.950242
vn 0.808324 0.041387 -0.587282
vn -0.308752 0.041387 -0.950242
vn -0.808324 0.041387 -0.587282
vn -0.999143 0.041387 0.000000
vn -0.808324 0.041387 0.587282
vn -0.308752 0.041387 0.950242
vn 0.308752 0.041387 0.950242
vn 0.808324 0.041387 0.587282
vn 0.999143 0.041387 0.000000
vn 0.306946 0.115576 -0.944683
vn 0.803595 0.115576 -0.583846
vn -0.306946 0.115576 -0.944683
vn -0.803596 0.115576 -0.583846
vn -0.993299 0.115576 0.000000
vn -0.803595 0.115576 0.583846
vn -0.306946 0.115576 0.944683
vn 0.306946 0.115576 0.944683
vn 0.803595 0.115576 0.583846
vn 0.993299 0.115576 0.000000
vn 0.616398 0.647684 -0.447839
vn 0.761909 0.647684 0.000000
vn 0.616398 0.647684 0.447839
vn 0.235443 0.647684 0.724619
vn -0.235443 0.647684 0.724619
vn -0.616397 0.647684 0.447839
vn -0.761909 0.647684 0.000000
vn -0.616398 0.647684 -0.447839
vn -0.235443 0.647683 -0.724619
vn 0.235443 0.647683 -0.724619
vn 0.532763 0.752554 -0.387074
vn 0.658531 0.752553 0.000000
vn 0.532763 0.752553 0.387076
vn 0.203497 0.752554 0.626300
vn -0.203497 0.752554 0.626299
vn -0.532763 0.752554 0.387075
vn -0.658531 0.752554 -0.000001
vn -0.532763 0.752553 -0.387076
vn -0.203497 0.752554 -0.626300
vn 0.203497 0.752554 -0.626299
s 1
g group2 pSphere1
usemtl lambert2SG
f 214/234/213 224/235/214 223/236/215 213/237/216
f 215/238/217 225/239/218 224/235/214 214/234/213
f 216/240/219 226/241/220 225/239/218 215/238/217
f 217/242/221 227/298/222 226/241/220 216/240/219
f 218/244/223 228/245/224 227/243/222 217/299/221
f 219/246/225 229/247/226 228/245/224 218/244/223
f 220/248/227 230/249/228 229/247/226 219/246/225
f 221/250/229 231/251/230 230/249/228 220/248/227
f 222/252/231 232/253/232 231/251/230 221/250/229
f 213/237/216 223/236/215 232/253/232 222/252/231
f 223/236/215 224/235/214 234/254/233 233/255/234
f 224/235/214 225/239/218 235/256/235 234/254/233
f 225/239/218 226/241/220 236/257/236 235/256/235
f 226/241/220 227/298/222 237/297/237 236/257/236
f 227/243/222 228/245/224 238/259/238 237/258/237
f 228/245/224 229/247/226 239/260/239 238/259/238
f 229/247/226 230/249/228 240/261/240 239/260/239
f 230/249/228 231/251/230 241/262/241 240/261/240
f 231/251/230 232/253/232 242/263/242 241/262/241
f 232/253/232 223/236/215 233/255/234 242/263/242
f 233/255/234 234/254/233 262/264/243 253/265/244
f 234/254/233 235/256/235 261/266/245 262/264/243
f 235/256/235 236/257/236 260/267/246 261/266/245
f 236/257/236 237/297/237 259/268/247 260/267/246
f 237/258/237 238/259/238 258/269/248 259/296/247
f 238/259/238 239/260/239 257/270/249 258/269/248
f 239/260/239 240/261/240 256/271/250 257/270/249
f 240/261/240 241/262/241 255/272/251 256/271/250
f 241/262/241 242/263/242 254/273/252 255/272/251
f 242/263/242 233/255/234 253/265/244 254/273/252
f 254/273/252 253/265/244 263/274/253 264/275/254
f 255/272/251 254/273/252 264/275/254 265/276/255
f 256/271/250 255/272/251 265/276/255 266/277/256
f 257/270/249 256/271/250 266/277/256 267/278/257
f 258/269/248 257/270/249 267/278/257 268/279/258
f 259/296/247 258/269/248 268/279/258 269/294/259
f 260/267/246 259/268/247 269/280/259 270/281/260
f 261/266/245 260/267/246 270/281/260 271/282/261
f 262/264/243 261/266/245 271/282/261 272/283/262
f 253/265/244 262/264/243 272/283/262 263/274/253
f 264/275/254 263/274/253 243/284/263 252/285/264
f 265/276/255 264/275/254 252/285/264 251/286/265
f 266/277/256 265/276/255 251/286/265 250/287/266
f 267/278/257 266/277/256 250/287/266 249/288/267
f 268/279/258 267/278/257 249/288/267 248/289/268
f 269/294/259 268/279/258 248/289/268 247/290/269
f 270/281/260 269/280/259 247/295/269 246/291/270
f 271/282/261 270/281/260 246/291/270 245/292/271
f 272/283/262 271/282/261 245/292/271 244/293/272
f 263/274/253 272/283/262 244/293/272 243/284/263
g default
v 0.597564 0.261074 -0.194160
v 0.508318 0.261074 -0.369315
v 0.369315 0.261074 -0.508318
v 0.194160 0.261074 -0.597564
v -0.000000 0.261074 -0.628316
v -0.194160 0.261074 -0.597564
v -0.369315 0.261074 -0.508318
v -0.508318 0.261074 -0.369315
v -0.597563 0.261074 -0.194160
v -0.628315 0.261074 0.000000
v -0.597563 0.261074 0.194160
v -0.508318 0.261074 0.369314
v -0.369314 0.261074 0.508318
v -0.194160 0.261074 0.597563
v -0.000000 0.261074 0.628315
v 0.194160 0.261074 0.597563
v 0.369314 0.261074 0.508318
v 0.508318 0.261074 0.369314
v 0.597563 0.261074 0.194160
v 0.628315 0.261074 0.000000
v 0.597564 0.440399 -0.194160
v 0.508318 0.440399 -0.369315
v 0.369315 0.440399 -0.508318
v 0.194160 0.440399 -0.597564
v 0.000000 0.440399 -0.628316
v -0.194160 0.440399 -0.597564
v -0.369315 0.440399 -0.508318
v -0.508318 0.440399 -0.369315
v -0.597563 0.440399 -0.194160
v -0.628315 0.440399 0.000000
v -0.597563 0.440399 0.194160
v -0.508318 0.440399 0.369314
v -0.369314 0.440399 0.508318
v -0.194160 0.440399 0.597563
v -0.000000 0.440399 0.628315
v 0.194160 0.440399 0.597563
v 0.369314 0.440399 0.508318
v 0.508318 0.440399 0.369314
v 0.597563 0.440399 0.194160
v 0.628315 0.440399 0.000000
v -0.000000 0.261074 0.000000
v 0.482649 0.535302 -0.156822
v 0.410566 0.535302 -0.298293
v 0.298293 0.535302 -0.410566
v 0.156822 0.535302 -0.482649
v -0.000000 0.535302 -0.507487
v -0.156822 0.535302 -0.482649
v -0.298293 0.535302 -0.410566
v -0.410565 0.535302 -0.298293
v -0.482649 0.535302 -0.156822
v -0.507487 0.535302 -0.000000
v -0.482649 0.535302 0.156822
v -0.410565 0.535302 0.298293
v -0.298293 0.535302 0.410566
v -0.156822 0.535302 0.482648
v -0.000000 0.535302 0.507487
v 0.156822 0.535302 0.482648
v 0.298293 0.535302 0.410565
v 0.410565 0.535302 0.298293
v 0.482648 0.535302 0.156822
v 0.507487 0.535302 -0.000000
v 0.209814 0.535302 -0.068173
v 0.178479 0.535302 -0.129673
v 0.129673 0.535302 -0.178479
v 0.068173 0.535302 -0.209815
v -0.000000 0.535302 -0.220612
v -0.068173 0.535302 -0.209815
v -0.129673 0.535302 -0.178479
v -0.178479 0.535302 -0.129673
v -0.209815 0.535302 -0.068173
v -0.220612 0.535302 -0.000000
v -0.209815 0.535302 0.068173
v -0.178479 0.535302 0.129672
v -0.129673 0.535302 0.178479
v -0.068173 0.535302 0.209814
v -0.000000 0.535302 0.220612
v 0.068173 0.535302 0.209814
v 0.129672 0.535302 0.178479
v 0.178479 0.535302 0.129672
v 0.209814 0.535302 0.068173
v 0.220612 0.535302 -0.000000
v 0.209814 0.588393 -0.068173
v 0.178479 0.588393 -0.129673
v 0.129673 0.588393 -0.178479
v 0.068173 0.588393 -0.209815
v -0.000000 0.588393 -0.220612
v -0.068173 0.588393 -0.209815
v -0.129673 0.588393 -0.178479
v -0.178479 0.588393 -0.129673
v -0.209815 0.588393 -0.068173
v -0.220612 0.588393 -0.000000
v -0.209815 0.588393 0.068173
v -0.178479 0.588393 0.129672
v -0.129673 0.588393 0.178479
v -0.068173 0.588393 0.209814
v -0.000000 0.588393 0.220612
v 0.068173 0.588393 0.209814
v 0.129672 0.588393 0.178479
v 0.178479 0.588393 0.129672
v 0.209814 0.588393 0.068173
v 0.220612 0.588393 -0.000000
v 0.179588 0.588393 -0.058352
v 0.152767 0.588393 -0.110992
v 0.110992 0.588393 -0.152767
v 0.058352 0.588393 -0.179588
v -0.000000 0.588393 -0.188830
v -0.058352 0.588393 -0.179588
v -0.110992 0.588393 -0.152767
v -0.152767 0.588393 -0.110992
v -0.179588 0.588393 -0.058352
v -0.188830 0.588393 -0.000000
v -0.179588 0.588393 0.058352
v -0.152767 0.588393 0.110992
v -0.110992 0.588393 0.152767
v -0.058352 0.588393 0.179588
v -0.000000 0.588393 0.188830
v 0.058352 0.588393 0.179588
v 0.110992 0.588393 0.152767
v 0.152767 0.588393 0.110992
v 0.179588 0.588393 0.058352
v 0.188830 0.588393 -0.000000
v 0.179588 0.522152 -0.058352
v 0.152767 0.522152 -0.110992
v -0.000000 0.522152 -0.000000
v 0.110992 0.522152 -0.152767
v 0.058352 0.522152 -0.179588
v -0.000000 0.522152 -0.188830
v -0.058352 0.522152 -0.179588
v -0.110992 0.522152 -0.152767
v -0.152767 0.522152 -0.110992
v -0.179588 0.522152 -0.058352
v -0.188830 0.522152 -0.000000
v -0.179588 0.522152 0.058352
v -0.152767 0.522152 0.110992
v -0.110992 0.522152 0.152767
v -0.058352 0.522152 0.179588
v -0.000000 0.522152 0.188830
v 0.058352 0.522152 0.179588
v 0.110992 0.522152 0.152767
v 0.152767 0.522152 0.110992
v 0.179588 0.522152 0.058352
v 0.188830 0.522152 -0.000000
vt 0.286963 0.664416
vt 0.301689 0.663552
vt 0.304252 0.689475
vt 0.288226 0.690014
vt 0.317313 0.661809
vt 0.321222 0.688331
vt 0.334339 0.658716
vt 0.339651 0.686231
vt 0.353350 0.653482
vt 0.360106 0.682628
vt 0.375060 0.644803
vt 0.383228 0.676706
vt 0.400418 0.630479
vt 0.409752 0.667321
vt 0.430793 0.606665
vt 0.440513 0.653027
vt 0.468383 0.566243
vt 0.476317 0.632606
vt 0.517151 0.495010
vt 0.028207 0.607861
vt 0.076957 0.566197
vt 0.069017 0.632556
vt 0.114531 0.606573
vt 0.104802 0.652925
vt 0.144897 0.630339
vt 0.135550 0.667164
vt 0.170254 0.644620
vt 0.162070 0.676497
vt 0.191969 0.653270
vt 0.185195 0.682380
vt 0.210989 0.658496
vt 0.205659 0.685973
vt 0.228023 0.661611
vt 0.224096 0.688098
vt 0.243653 0.663404
vt 0.241072 0.689301
vt 0.258384 0.664336
vt 0.257100 0.689921
vt 0.272674 0.664650
vt 0.272663 0.690141
vt 0.272679 0.495010
vt 0.287241 0.844810
vt 0.302338 0.846805
vt 0.272679 0.980180
vt 0.318298 0.850312
vt 0.335604 0.855671
vt 0.354809 0.863410
vt 0.376597 0.874307
vt 0.401881 0.889469
vt 0.432006 0.910461
vt 0.469143 0.939540
vt 0.028207 0.980180
vt 0.076190 0.939490
vt 0.113302 0.910361
vt 0.143395 0.889320
vt 0.168644 0.874116
vt 0.190397 0.863192
vt 0.209573 0.855451
vt 0.226858 0.850117
vt 0.242805 0.846661
vt 0.257896 0.844733
vt 0.272568 0.844139
vt 0.306033 0.714242
vt 0.289100 0.714353
vt 0.323927 0.713891
vt 0.343298 0.713100
vt 0.364678 0.711591
vt 0.388626 0.709052
vt 0.415677 0.705300
vt 0.446252 0.700789
vt 0.480382 0.697964
vt 0.028207 0.704549
vt 0.064950 0.697910
vt 0.099058 0.700680
vt 0.129616 0.705135
vt 0.156658 0.708833
vt 0.180602 0.711334
vt 0.201985 0.712834
vt 0.221359 0.713651
vt 0.239257 0.714063
vt 0.256189 0.714257
vt 0.272646 0.714344
vt 0.307894 0.786788
vt 0.290013 0.785274
vt 0.326754 0.789415
vt 0.346998 0.793378
vt 0.369164 0.799040
vt 0.393619 0.806970
vt 0.420749 0.818021
vt 0.450649 0.833444
vt 0.483086 0.855013
vt 0.028207 0.885082
vt 0.062246 0.854955
vt 0.094651 0.833327
vt 0.124529 0.817849
vt 0.151615 0.806743
vt 0.176056 0.798788
vt 0.198179 0.793111
vt 0.218428 0.789190
vt 0.237256 0.786611
vt 0.255157 0.785186
vt 0.272572 0.784745
vt 0.306641 0.807022
vt 0.289369 0.805245
vt 0.324837 0.810122
vt 0.344457 0.814828
vt 0.365987 0.821589
vt 0.389948 0.831074
vt 0.416819 0.844231
vt 0.447023 0.862321
vt 0.480699 0.886780
vt 0.028207 0.918493
vt 0.064634 0.886724
vt 0.098283 0.862206
vt 0.128453 0.844055
vt 0.155287 0.830840
vt 0.179204 0.821314
vt 0.200706 0.814549
vt 0.220301 0.809873
vt 0.238492 0.806841
vt 0.255756 0.805148
vt 0.272565 0.804636
vt 0.305604 0.819565
vt 0.288857 0.817665
vt 0.323273 0.822888
vt 0.342346 0.827947
vt 0.363351 0.835229
vt 0.386844 0.845455
vt 0.413442 0.859624
vt 0.443793 0.879036
vt 0.478446 0.905105
vt 0.028207 0.938493
vt 0.066888 0.905050
vt 0.101513 0.878924
vt 0.131831 0.859453
vt 0.158388 0.845227
vt 0.181841 0.834964
vt 0.202810 0.827674
vt 0.221864 0.822648
vt 0.239520 0.819387
vt 0.256265 0.817572
vt 0.272559 0.817018
vt 0.517151 0.980180
vt 0.517151 0.938493
vt 0.517151 0.918493
vt 0.517151 0.885082
vt 0.517151 0.704549
vt 0.517151 0.607861
vt 0.028207 0.495010
vn 0.509382 -0.844475 -0.165508
vn 0.433306 -0.844475 -0.314815
vn 0.753850 0.362945 -0.547705
vn 0.886205 0.362945 -0.287945
vn 0.314815 -0.844475 -0.433306
vn 0.547704 0.362945 -0.753851
vn 0.165508 -0.844475 -0.509381
vn 0.287945 0.362945 -0.886205
vn 0.000000 -0.844475 -0.535595
vn -0.000000 0.362946 -0.931810
vn -0.165508 -0.844475 -0.509381
vn -0.287945 0.362946 -0.886204
vn -0.314815 -0.844475 -0.433306
vn -0.547705 0.362945 -0.753850
vn -0.433306 -0.844475 -0.314815
vn -0.753851 0.362945 -0.547704
vn -0.509381 -0.844475 -0.165508
vn -0.886205 0.362945 -0.287945
vn -0.535595 -0.844475 -0.000000
vn -0.931810 0.362945 0.000000
vn -0.509381 -0.844475 0.165508
vn -0.886204 0.362945 0.287945
vn -0.433306 -0.844475 0.314815
vn -0.753850 0.362945 0.547705
vn -0.314815 -0.844475 0.433306
vn -0.547705 0.362945 0.753851
vn -0.165508 -0.844475 0.509381
vn -0.287945 0.362945 0.886204
vn 0.000000 -0.844475 0.535596
vn 0.000000 0.362946 0.931810
vn 0.165508 -0.844475 0.509381
vn 0.287945 0.362946 0.886204
vn 0.314815 -0.844475 0.433306
vn 0.547705 0.362945 0.753850
vn 0.433306 -0.844475 0.314815
vn 0.753851 0.362945 0.547704
vn 0.509381 -0.844475 0.165508
vn 0.886204 0.362945 0.287945
vn 0.535595 -0.844475 0.000001
vn 0.931810 0.362945 0.000001
vn 0.000000 -1.000000 -0.000000
vn -0.584722 0.788673 0.189987
vn -0.497395 0.788673 0.361377
vn 0.000000 1.000000 -0.000000
vn -0.361378 0.788672 0.497395
vn -0.189987 0.788673 0.584723
vn 0.000000 0.788673 0.614814
vn 0.189988 0.788673 0.584722
vn 0.361378 0.788672 0.497395
vn 0.497395 0.788672 0.361379
vn 0.584722 0.788673 0.189988
vn 0.614814 0.788672 0.000000
vn 0.584722 0.788673 -0.189988
vn 0.497395 0.788672 -0.361379
vn 0.361378 0.788672 -0.497395
vn 0.189987 0.788673 -0.584723
vn -0.000000 0.788672 -0.614814
vn -0.189988 0.788672 -0.584723
vn -0.361378 0.788673 -0.497395
vn -0.497395 0.788672 -0.361378
vn -0.584722 0.788673 -0.189988
vn -0.614814 0.788672 0.000000
vn 0.264531 0.945032 -0.192193
vn 0.310975 0.945032 -0.101042
vn 0.192193 0.945032 -0.264531
vn 0.101042 0.945032 -0.310975
vn -0.000000 0.945032 -0.326978
vn -0.101042 0.945032 -0.310975
vn -0.192193 0.945032 -0.264531
vn -0.264531 0.945032 -0.192193
vn -0.310975 0.945032 -0.101042
vn -0.326978 0.945032 -0.000000
vn -0.310975 0.945032 0.101042
vn -0.264531 0.945032 0.192193
vn -0.192193 0.945032 0.264531
vn -0.101042 0.945032 0.310975
vn 0.000000 0.945032 0.326978
vn 0.101042 0.945032 0.310975
vn 0.192193 0.945032 0.264531
vn 0.264531 0.945032 0.192193
vn 0.310975 0.945032 0.101042
vn 0.326978 0.945032 0.000000
vn 0.082058 0.994843 -0.059619
vn 0.096465 0.994843 -0.031343
vn 0.059619 0.994843 -0.082058
vn 0.031343 0.994843 -0.096466
vn -0.000000 0.994843 -0.101430
vn -0.031343 0.994843 -0.096465
vn -0.059619 0.994843 -0.082058
vn -0.082058 0.994843 -0.059619
vn -0.096465 0.994843 -0.031343
vn -0.101429 0.994843 0.000000
vn -0.096465 0.994843 0.031343
vn -0.082058 0.994843 0.059619
vn -0.059619 0.994843 0.082058
vn -0.031343 0.994843 0.096465
vn 0.000000 0.994843 0.101430
vn 0.031343 0.994843 0.096465
vn 0.059619 0.994843 0.082058
vn 0.082058 0.994843 0.059619
vn 0.096465 0.994843 0.031343
vn 0.101430 0.994843 0.000000
vn 0.723621 0.447178 -0.525741
vn 0.850668 0.447178 -0.276398
vn 0.525741 0.447178 -0.723622
vn 0.276398 0.447178 -0.850668
vn -0.000000 0.447178 -0.894445
vn -0.276398 0.447178 -0.850668
vn -0.525741 0.447178 -0.723621
vn -0.723621 0.447178 -0.525741
vn -0.850668 0.447178 -0.276399
vn -0.894445 0.447178 0.000000
vn -0.850668 0.447178 0.276399
vn -0.723621 0.447178 0.525742
vn -0.525741 0.447178 0.723622
vn -0.276398 0.447178 0.850668
vn 0.000000 0.447178 0.894445
vn 0.276398 0.447178 0.850668
vn 0.525741 0.447178 0.723622
vn 0.723621 0.447178 0.525742
vn 0.850668 0.447178 0.276399
vn 0.894445 0.447178 0.000001
vn -0.702198 0.496628 0.510175
vn -0.825483 0.496628 0.268215
vn -0.510176 0.496628 0.702197
vn -0.268214 0.496627 0.825483
vn 0.000000 0.496627 0.867964
vn 0.268215 0.496628 0.825483
vn 0.510176 0.496628 0.702197
vn 0.702197 0.496628 0.510176
vn 0.825483 0.496627 0.268215
vn 0.867964 0.496628 0.000000
vn 0.825483 0.496627 -0.268215
vn 0.702197 0.496628 -0.510176
vn 0.510176 0.496628 -0.702198
vn 0.268214 0.496627 -0.825483
vn -0.000000 0.496627 -0.867964
vn -0.268215 0.496628 -0.825483
vn -0.510176 0.496628 -0.702198
vn -0.702197 0.496628 -0.510176
vn -0.825483 0.496627 -0.268216
vn -0.867964 0.496628 -0.000001
s 1
g group2 pCylinder1
usemtl lambert3SG
f 273/300/273 274/301/274 294/302/275 293/303/276
f 274/301/274 275/304/277 295/305/278 294/302/275
f 275/304/277 276/306/279 296/307/280 295/305/278
f 276/306/279 277/308/281 297/309/282 296/307/280
f 277/308/281 278/310/283 298/311/284 297/309/282
f 278/310/283 279/312/285 299/313/286 298/311/284
f 279/312/285 280/314/287 300/315/288 299/313/286
f 280/314/287 281/316/289 301/317/290 300/315/288
f 281/316/289 282/318/291 302/447/292 301/317/290
f 282/448/291 283/320/293 303/321/294 302/319/292
f 283/320/293 284/322/295 304/323/296 303/321/294
f 284/322/295 285/324/297 305/325/298 304/323/296
f 285/324/297 286/326/299 306/327/300 305/325/298
f 286/326/299 287/328/301 307/329/302 306/327/300
f 287/328/301 288/330/303 308/331/304 307/329/302
f 288/330/303 289/332/305 309/333/306 308/331/304
f 289/332/305 290/334/307 310/335/308 309/333/306
f 290/334/307 291/336/309 311/337/310 310/335/308
f 291/336/309 292/338/311 312/339/312 311/337/310
f 292/338/311 273/300/273 293/303/276 312/339/312
f 274/301/274 273/300/273 313/340/313
f 275/304/277 274/301/274 313/340/313
f 276/306/279 275/304/277 313/340/313
f 277/308/281 276/306/279 313/340/313
f 278/310/283 277/308/281 313/340/313
f 279/312/285 278/310/283 313/340/313
f 280/314/287 279/312/285 313/340/313
f 281/316/289 280/314/287 313/340/313
f 282/318/291 281/316/289 313/340/313
f 283/320/293 282/448/291 313/340/313
f 284/322/295 283/320/293 313/340/313
f 285/324/297 284/322/295 313/340/313
f 286/326/299 285/324/297 313/340/313
f 287/328/301 286/326/299 313/340/313
f 288/330/303 287/328/301 313/340/313
f 289/332/305 288/330/303 313/340/313
f 290/334/307 289/332/305 313/340/313
f 291/336/309 290/334/307 313/340/313
f 292/338/311 291/336/309 313/340/313
f 273/300/273 292/338/311 313/340/313
f 394/341/314 395/342/315 396/343/316
f 395/342/315 397/344/317 396/343/316
f 397/344/317 398/345/318 396/343/316
f 398/345/318 399/346/319 396/343/316
f 399/346/319 400/347/320 396/343/316
f 400/347/320 401/348/321 396/343/316
f 401/348/321 402/349/322 396/343/316
f 402/349/322 403/350/323 396/343/316
f 403/350/323 404/442/324 396/343/316
f 404/351/324 405/352/325 396/343/316
f 405/352/325 406/353/326 396/343/316
f 406/353/326 407/354/327 396/343/316
f 407/354/327 408/355/328 396/343/316
f 408/355/328 409/356/329 396/343/316
f 409/356/329 410/357/330 396/343/316
f 410/357/330 411/358/331 396/343/316
f 411/358/331 412/359/332 396/343/316
f 412/359/332 413/360/333 396/343/316
f 413/360/333 414/361/334 396/343/316
f 414/361/334 394/341/314 396/343/316
f 293/303/276 294/302/275 315/362/335 314/363/336
f 294/302/275 295/305/278 316/364/337 315/362/335
f 295/305/278 296/307/280 317/365/338 316/364/337
f 296/307/280 297/309/282 318/366/339 317/365/338
f 297/309/282 298/311/284 319/367/340 318/366/339
f 298/311/284 299/313/286 320/368/341 319/367/340
f 299/313/286 300/315/288 321/369/342 320/368/341
f 300/315/288 301/317/290 322/370/343 321/369/342
f 301/317/290 302/447/292 323/446/344 322/370/343
f 302/319/292 303/321/294 324/372/345 323/371/344
f 303/321/294 304/323/296 325/373/346 324/372/345
f 304/323/296 305/325/298 326/374/347 325/373/346
f 305/325/298 306/327/300 327/375/348 326/374/347
f 306/327/300 307/329/302 328/376/349 327/375/348
f 307/329/302 308/331/304 329/377/350 328/376/349
f 308/331/304 309/333/306 330/378/351 329/377/350
f 309/333/306 310/335/308 331/379/352 330/378/351
f 310/335/308 311/337/310 332/380/353 331/379/352
f 311/337/310 312/339/312 333/381/354 332/380/353
f 312/339/312 293/303/276 314/363/336 333/381/354
f 314/363/336 315/362/335 335/382/355 334/383/356
f 315/362/335 316/364/337 336/384/357 335/382/355
f 316/364/337 317/365/338 337/385/358 336/384/357
f 317/365/338 318/366/339 338/386/359 337/385/358
f 318/366/339 319/367/340 339/387/360 338/386/359
f 319/367/340 320/368/341 340/388/361 339/387/360
f 320/368/341 321/369/342 341/389/362 340/388/361
f 321/369/342 322/370/343 342/390/363 341/389/362
f 322/370/343 323/446/344 343/445/364 342/390/363
f 323/371/344 324/372/345 344/392/365 343/391/364
f 324/372/345 325/373/346 345/393/366 344/392/365
f 325/373/346 326/374/347 346/394/367 345/393/366
f 326/374/347 327/375/348 347/395/368 346/394/367
f 327/375/348 328/376/349 348/396/369 347/395/368
f 328/376/349 329/377/350 349/397/370 348/396/369
f 329/377/350 330/378/351 350/398/371 349/397/370
f 330/378/351 331/379/352 351/399/372 350/398/371
f 331/379/352 332/380/353 352/400/373 351/399/372
f 332/380/353 333/381/354 353/401/374 352/400/373
f 333/381/354 314/363/336 334/383/356 353/401/374
f 334/383/356 335/382/355 355/402/375 354/403/376
f 335/382/355 336/384/357 356/404/377 355/402/375
f 336/384/357 337/385/358 357/405/378 356/404/377
f 337/385/358 338/386/359 358/406/379 357/405/378
f 338/386/359 339/387/360 359/407/380 358/406/379
f 339/387/360 340/388/361 360/408/381 359/407/380
f 340/388/361 341/389/362 361/409/382 360/408/381
f 341/389/362 342/390/363 362/410/383 361/409/382
f 342/390/363 343/445/364 363/444/384 362/410/383
f 343/391/364 344/392/365 364/412/385 363/411/384
f 344/392/365 345/393/366 365/413/386 364/412/385
f 345/393/366 346/394/367 366/414/387 365/413/386
f 346/394/367 347/395/368 367/415/388 366/414/387
f 347/395/368 348/396/369 368/416/389 367/415/388
f 348/396/369 349/397/370 369/417/390 368/416/389
f 349/397/370 350/398/371 370/418/391 369/417/390
f 350/398/371 351/399/372 371/419/392 370/418/391
f 351/399/372 352/400/373 372/420/393 371/419/392
f 352/400/373 353/401/374 373/421/394 372/420/393
f 353/401/374 334/383/356 354/403/376 373/421/394
f 354/403/376 355/402/375 375/422/395 374/423/396
f 355/402/375 356/404/377 376/424/397 375/422/395
f 356/404/377 357/405/378 377/425/398 376/424/397
f 357/405/378 358/406/379 378/426/399 377/425/398
f 358/406/379 359/407/380 379/427/400 378/426/399
f 359/407/380 360/408/381 380/428/401 379/427/400
f 360/408/381 361/409/382 381/429/402 380/428/401
f 361/409/382 362/410/383 382/430/403 381/429/402
f 362/410/383 363/444/384 383/443/404 382/430/403
f 363/411/384 364/412/385 384/432/405 383/431/404
f 364/412/385 365/413/386 385/433/406 384/432/405
f 365/413/386 366/414/387 386/434/407 385/433/406
f 366/414/387 367/415/388 387/435/408 386/434/407
f 367/415/388 368/416/389 388/436/409 387/435/408
f 368/416/389 369/417/390 389/437/410 388/436/409
f 369/417/390 370/418/391 390/438/411 389/437/410
f 370/418/391 371/419/392 391/439/412 390/438/411
f 371/419/392 372/420/393 392/440/413 391/439/412
f 372/420/393 373/421/394 393/441/414 392/440/413
f 373/421/394 354/403/376 374/423/396 393/441/414
f 374/423/396 375/422/395 395/342/315 394/341/314
f 375/422/395 376/424/397 397/344/317 395/342/315
f 376/424/397 377/425/398 398/345/318 397/344/317
f 377/425/398 378/426/399 399/346/319 398/345/318
f 378/426/399 379/427/400 400/347/320 399/346/319
f 379/427/400 380/428/401 401/348/321 400/347/320
f 380/428/401 381/429/402 402/349/322 401/348/321
f 381/429/402 382/430/403 403/350/323 402/349/322
f 382/430/403 383/443/404 404/442/324 403/350/323
f 383/431/404 384/432/405 405/352/325 404/351/324
f 384/432/405 385/433/406 406/353/326 405/352/325
f 385/433/406 386/434/407 407/354/327 406/353/326
f 386/434/407 387/435/408 408/355/328 407/354/327
f 387/435/408 388/436/409 409/356/329 408/355/328
f 388/436/409 389/437/410 410/357/330 409/356/329
f 389/437/410 390/438/411 411/358/331 410/357/330
f 390/438/411 391/439/412 412/359/332 411/358/331
f 391/439/412 392/440/413 413/360/333 412/359/332
f 392/440/413 393/441/414 414/361/334 413/360/333
f 393/441/414 374/423/396 394/341/314 414/361/334
g default
v -0.642171 0.456018 0.123105
v -0.666631 0.435801 0.199187
v -0.701842 0.406698 0.199187
v -0.734354 0.379827 0.123105
v -0.747761 0.368746 -0.000000
v -0.734354 0.379827 -0.123105
v -0.701842 0.406698 -0.199187
v -0.666631 0.435801 -0.199187
v -0.642171 0.456018 -0.123105
v -0.633816 0.462922 -0.000000
v -0.603320 2.211518 0.067240
v -0.625325 2.218461 0.108797
v -0.651296 2.222355 0.108797
v -0.671371 2.221934 0.067240
v -0.678820 2.220934 -0.000000
v -0.671371 2.221934 -0.067240
v -0.651296 2.222355 -0.108797
v -0.625325 2.218461 -0.108797
v -0.603320 2.211518 -0.067240
v -0.594658 2.207886 -0.000000
v -0.722134 0.570929 0.123105
v -0.753868 0.570929 0.199187
v -0.799550 0.570929 0.199187
v -0.841728 0.570929 0.123105
v -0.859123 0.570929 -0.000000
v -0.841728 0.570929 -0.123105
v -0.799550 0.570929 -0.199187
v -0.753868 0.570929 -0.199187
v -0.722134 0.570929 -0.123105
v -0.711296 0.570929 0.000000
v -0.468046 2.372086 0.108797
v -0.460684 2.349475 0.067240
v -0.475635 2.394265 0.108797
v -0.480533 2.407468 0.067240
v -0.482094 2.411331 -0.000000
v -0.480533 2.407468 -0.067240
v -0.475635 2.394265 -0.108797
v -0.468046 2.372086 -0.108797
v -0.460684 2.349475 -0.067240
v -0.457575 2.339705 -0.000000
v 0.000000 2.498430 0.108797
v 0.000000 2.476872 0.067240
v 0.000000 2.522863 0.108797
v 0.000000 2.540793 0.067240
v 0.000000 2.547168 -0.000000
v 0.000000 2.540793 -0.067240
v 0.000000 2.522863 -0.108797
v 0.000000 2.498430 -0.108797
v 0.000000 2.476872 -0.067240
v 0.000000 2.468191 -0.000000
v -0.527346 0.412520 0.115223
v -0.547035 0.390281 0.186435
v -0.575378 0.358268 0.186435
v -0.601547 0.328710 0.115223
v -0.612340 0.316520 -0.000000
v -0.601547 0.328710 -0.115223
v -0.575378 0.358268 -0.186435
v -0.547035 0.390281 -0.186435
v -0.527346 0.412520 -0.115223
v -0.520621 0.420115 -0.000000
v 0.642170 0.456018 0.123105
v 0.666631 0.435801 0.199187
v 0.701842 0.406698 0.199187
v 0.734353 0.379827 0.123105
v 0.747761 0.368746 -0.000000
v 0.734353 0.379827 -0.123105
v 0.701842 0.406698 -0.199187
v 0.666631 0.435801 -0.199187
v 0.642170 0.456018 -0.123105
v 0.633816 0.462922 0.000000
v 0.603320 2.211518 0.067240
v 0.625324 2.218461 0.108797
v 0.651296 2.222355 0.108797
v 0.671371 2.221934 0.067240
v 0.678820 2.220934 -0.000000
v 0.671371 2.221934 -0.067240
v 0.651296 2.222355 -0.108797
v 0.625324 2.218461 -0.108797
v 0.603320 2.211518 -0.067240
v 0.594658 2.207886 -0.000000
v 0.722134 0.570929 0.123105
v 0.753868 0.570929 0.199187
v 0.799550 0.570929 0.199187
v 0.841728 0.570929 0.123105
v 0.859123 0.570929 -0.000000
v 0.841728 0.570929 -0.123105
v 0.799550 0.570929 -0.199187
v 0.753868 0.570929 -0.199187
v 0.722134 0.570929 -0.123105
v 0.711296 0.570929 0.000000
v 0.468046 2.372086 0.108797
v 0.460684 2.349475 0.067240
v 0.475635 2.394265 0.108797
v 0.480533 2.407468 0.067240
v 0.482094 2.411331 -0.000000
v 0.480533 2.407468 -0.067240
v 0.475635 2.394265 -0.108797
v 0.468046 2.372086 -0.108797
v 0.460684 2.349475 -0.067240
v 0.457575 2.339705 -0.000000
v 0.527346 0.412520 0.115223
v 0.547035 0.390281 0.186435
v 0.575378 0.358268 0.186435
v 0.601547 0.328710 0.115223
v 0.612340 0.316520 -0.000000
v 0.601547 0.328710 -0.115223
v 0.575378 0.358268 -0.186435
v 0.547035 0.390281 -0.186435
v 0.527346 0.412520 -0.115223
v 0.520621 0.420115 0.000000
vt 0.902612 0.096308
vt 0.904012 0.273613
vt 0.865008 0.273335
vt 0.864987 0.096025
vt 0.844527 0.273056
vt 0.845153 0.095977
vt 0.808139 0.272550
vt 0.807845 0.096261
vt 0.755080 0.272265
vt 0.755174 0.096439
vt 0.702020 0.272548
vt 0.702561 0.096211
vt 0.665663 0.273050
vt 0.665251 0.095919
vt 0.645215 0.273335
vt 0.645418 0.095970
vt 0.606346 0.273610
vt 0.607797 0.096270
vt 0.549926 0.274328
vt 0.960673 0.096624
vt 0.899430 0.081546
vt 0.860425 0.081141
vt 0.841199 0.081246
vt 0.805368 0.080750
vt 0.754904 0.080544
vt 0.705253 0.080730
vt 0.669820 0.081117
vt 0.650307 0.080988
vt 0.610490 0.081472
vt 0.960673 0.082231
vt 0.902166 0.295206
vt 0.862023 0.295603
vt 0.843479 0.295903
vt 0.808556 0.296128
vt 0.755409 0.296228
vt 0.702265 0.296148
vt 0.667427 0.295940
vt 0.648913 0.295640
vt 0.608730 0.295226
vt 0.549926 0.294921
vt 0.903043 0.346403
vt 0.864109 0.346407
vt 0.844811 0.346405
vt 0.808714 0.346396
vt 0.755300 0.346385
vt 0.701885 0.346374
vt 0.665788 0.346364
vt 0.646490 0.346363
vt 0.607556 0.346367
vt 0.549926 0.346385
vt 0.869294 0.069126
vt 0.905858 0.069126
vt 0.849032 0.069126
vt 0.810446 0.069126
vt 0.755300 0.069126
vt 0.700154 0.069126
vt 0.661568 0.069126
vt 0.641306 0.069126
vt 0.604741 0.069126
vt 0.960673 0.069126
vt 0.902802 0.596500
vt 0.865181 0.596800
vt 0.865384 0.419442
vt 0.904253 0.419158
vt 0.845348 0.596851
vt 0.844936 0.419713
vt 0.808038 0.596559
vt 0.808579 0.420224
vt 0.755425 0.596331
vt 0.755520 0.420504
vt 0.702754 0.596509
vt 0.702457 0.420218
vt 0.665447 0.596792
vt 0.666085 0.419719
vt 0.645613 0.596745
vt 0.645579 0.419430
vt 0.607987 0.596462
vt 0.606592 0.419159
vt 0.549926 0.596146
vt 0.960673 0.418442
vt 0.900110 0.611297
vt 0.860292 0.611781
vt 0.840780 0.611653
vt 0.805346 0.612039
vt 0.755696 0.612226
vt 0.705231 0.612020
vt 0.669401 0.611524
vt 0.650175 0.611629
vt 0.611170 0.611224
vt 0.549926 0.610539
vt 0.861686 0.397129
vt 0.901869 0.397544
vt 0.843172 0.396830
vt 0.808335 0.396622
vt 0.755190 0.396542
vt 0.702043 0.396642
vt 0.667120 0.396867
vt 0.648576 0.397167
vt 0.608433 0.397564
vt 0.960673 0.397849
vt 0.905858 0.623644
vt 0.869294 0.623644
vt 0.849032 0.623644
vt 0.810446 0.623644
vt 0.755300 0.623644
vt 0.700153 0.623644
vt 0.661568 0.623644
vt 0.641306 0.623644
vt 0.604741 0.623644
vt 0.549926 0.623644
vt 0.960673 0.610539
vt 0.960673 0.623644
vt 0.549926 0.397849
vt 0.960673 0.346385
vt 0.549926 0.418442
vt 0.960673 0.596146
vt 0.549926 0.082231
vt 0.549926 0.069126
vt 0.960673 0.294921
vt 0.960673 0.274328
vt 0.549926 0.096624
vn 0.970847 0.001676 0.239693
vn 0.962393 -0.115324 0.245968
vn 0.648079 -0.046265 0.760166
vn 0.646306 0.024904 0.762672
vn -0.668342 0.151027 0.728361
vn -0.679016 0.033973 0.733337
vn -0.949871 0.167973 0.263685
vn -0.961893 0.025607 0.272223
vn -0.985451 0.169962 -0.000000
vn -0.999752 0.022284 -0.000000
vn -0.949871 0.167973 -0.263685
vn -0.961893 0.025607 -0.272223
vn -0.668341 0.151027 -0.728362
vn -0.679015 0.033973 -0.733338
vn 0.648080 -0.046265 -0.760166
vn 0.646306 0.024904 -0.762672
vn 0.962393 -0.115324 -0.245968
vn 0.970847 0.001676 -0.239693
vn 0.992458 -0.122583 0.000000
vn 0.999984 -0.005672 0.000000
vn 0.627267 0.749470 0.211733
vn 0.446181 0.442756 0.777747
vn -0.494271 -0.541108 0.680367
vn -0.686343 -0.677194 0.265220
vn -0.720113 -0.693856 -0.000000
vn -0.686343 -0.677193 -0.265220
vn -0.494271 -0.541108 -0.680367
vn 0.446181 0.442756 -0.777746
vn 0.627267 0.749470 -0.211733
vn 0.627897 0.778297 -0.000000
vn 0.388627 -0.875017 0.288644
vn 0.247726 -0.580260 0.775842
vn -0.331781 0.695472 0.637370
vn -0.419794 0.889940 0.178266
vn -0.430004 0.902827 -0.000000
vn -0.419795 0.889940 -0.178266
vn -0.331781 0.695471 -0.637371
vn 0.247727 -0.580261 -0.775840
vn 0.388627 -0.875017 -0.288643
vn 0.405443 -0.914120 -0.000000
vn 0.000000 -0.954695 0.297585
vn 0.000000 -0.607346 0.794437
vn -0.000000 0.765065 0.643954
vn -0.000000 0.982141 0.188146
vn 0.000000 1.000000 0.000000
vn -0.000000 0.982141 -0.188146
vn -0.000000 0.765064 -0.643954
vn 0.000000 -0.607347 -0.794437
vn 0.000000 -0.954695 -0.297585
vn 0.000000 -1.000000 0.000000
vn 0.330537 0.714971 0.616086
vn 0.359960 0.915556 0.179406
vn -0.178342 -0.645267 0.742849
vn -0.331654 -0.906396 0.261634
vn -0.356256 -0.934388 -0.000000
vn -0.331654 -0.906396 -0.261634
vn -0.178342 -0.645267 -0.742849
vn 0.330537 0.714971 -0.616086
vn 0.359960 0.915556 -0.179406
vn 0.356390 0.934337 -0.000000
vn -0.970847 0.001676 0.239693
vn -0.646305 0.024904 0.762673
vn -0.648079 -0.046265 0.760166
vn -0.962393 -0.115324 0.245968
vn 0.679015 0.033973 0.733338
vn 0.668341 0.151027 0.728362
vn 0.961894 0.025607 0.272223
vn 0.949871 0.167973 0.263685
vn 0.999752 0.022284 0.000000
vn 0.985451 0.169962 0.000000
vn 0.961893 0.025607 -0.272223
vn 0.949871 0.167973 -0.263685
vn 0.679015 0.033973 -0.733338
vn 0.668341 0.151027 -0.728362
vn -0.646305 0.024904 -0.762672
vn -0.648080 -0.046265 -0.760166
vn -0.970847 0.001676 -0.239693
vn -0.962393 -0.115324 -0.245968
vn -0.999984 -0.005672 0.000000
vn -0.992458 -0.122583 0.000000
vn -0.627267 0.749470 0.211733
vn -0.446181 0.442756 0.777747
vn 0.494271 -0.541108 0.680366
vn 0.686343 -0.677194 0.265220
vn 0.720113 -0.693856 -0.000000
vn 0.686343 -0.677194 -0.265220
vn 0.494271 -0.541108 -0.680367
vn -0.446181 0.442756 -0.777746
vn -0.627267 0.749470 -0.211733
vn -0.627897 0.778297 0.000000
vn -0.247727 -0.580262 0.775840
vn -0.388627 -0.875016 0.288644
vn 0.331781 0.695471 0.637371
vn 0.419794 0.889940 0.178267
vn 0.430004 0.902827 0.000000
vn 0.419794 0.889940 -0.178267
vn 0.331780 0.695471 -0.637371
vn -0.247727 -0.580262 -0.775840
vn -0.388627 -0.875016 -0.288644
vn -0.405443 -0.914120 -0.000000
vn -0.359960 0.915556 0.179406
vn -0.330537 0.714971 0.616086
vn 0.178342 -0.645268 0.742848
vn 0.331654 -0.906396 0.261633
vn 0.356256 -0.934388 0.000000
vn 0.331654 -0.906396 -0.261633
vn 0.178343 -0.645268 -0.742848
vn -0.330537 0.714971 -0.616086
vn -0.359960 0.915556 -0.179406
vn -0.356391 0.934337 0.000000
s 1
g group2 pasted__pasted__pCylinder2
usemtl lambert3SG
f 435/449/415 425/450/416 426/451/417 436/452/418
f 436/452/418 426/451/417 427/453/419 437/454/420
f 437/454/420 427/453/419 428/455/421 438/456/422
f 438/456/422 428/455/421 429/457/423 439/458/424
f 439/458/424 429/457/423 430/459/425 440/460/426
f 440/460/426 430/459/425 431/461/427 441/462/428
f 441/462/428 431/461/427 432/463/429 442/464/430
f 442/464/430 432/463/429 433/465/431 443/466/432
f 443/466/432 433/465/431 434/467/433 444/569/434
f 444/468/434 434/568/433 425/450/416 435/449/415
f 415/469/435 435/449/415 436/452/418 416/470/436
f 416/470/436 436/452/418 437/454/420 417/471/437
f 417/471/437 437/454/420 438/456/422 418/472/438
f 418/472/438 438/456/422 439/458/424 419/473/439
f 419/473/439 439/458/424 440/460/426 420/474/440
f 420/474/440 440/460/426 441/462/428 421/475/441
f 421/475/441 441/462/428 442/464/430 422/476/442
f 422/476/442 442/464/430 443/466/432 423/477/443
f 423/477/443 443/466/432 444/569/434 424/565/444
f 424/478/444 444/468/434 435/449/415 415/469/435
f 425/450/416 446/479/445 445/480/446 426/451/417
f 426/451/417 445/480/446 447/481/447 427/453/419
f 427/453/419 447/481/447 448/482/448 428/455/421
f 428/455/421 448/482/448 449/483/449 429/457/423
f 429/457/423 449/483/449 450/484/450 430/459/425
f 430/459/425 450/484/450 451/485/451 431/461/427
f 431/461/427 451/485/451 452/486/452 432/463/429
f 432/463/429 452/486/452 453/487/453 433/465/431
f 433/465/431 453/487/453 454/488/454 434/467/433
f 434/568/433 454/567/454 446/479/445 425/450/416
f 446/479/445 456/489/455 455/490/456 445/480/446
f 445/480/446 455/490/456 457/491/457 447/481/447
f 447/481/447 457/491/457 458/492/458 448/482/448
f 448/482/448 458/492/458 459/493/459 449/483/449
f 449/483/449 459/493/459 460/494/460 450/484/450
f 450/484/450 460/494/460 461/495/461 451/485/451
f 451/485/451 461/495/461 462/496/462 452/486/452
f 452/486/452 462/496/462 463/497/463 453/487/453
f 453/487/453 463/497/463 464/498/464 454/488/454
f 454/567/454 464/562/464 456/489/455 446/479/445
f 415/469/435 416/470/436 466/499/465 465/500/466
f 416/470/436 417/471/437 467/501/467 466/499/465
f 417/471/437 418/472/438 468/502/468 467/501/467
f 418/472/438 419/473/439 469/503/469 468/502/468
f 419/473/439 420/474/440 470/504/470 469/503/469
f 420/474/440 421/475/441 471/505/471 470/504/470
f 421/475/441 422/476/442 472/506/472 471/505/471
f 422/476/442 423/477/443 473/507/473 472/506/472
f 423/477/443 424/565/444 474/566/474 473/507/473
f 424/478/444 415/469/435 465/500/466 474/508/474
f 495/509/475 496/510/476 486/511/477 485/512/478
f 496/510/476 497/513/479 487/514/480 486/511/477
f 497/513/479 498/515/481 488/516/482 487/514/480
f 498/515/481 499/517/483 489/518/484 488/516/482
f 499/517/483 500/519/485 490/520/486 489/518/484
f 500/519/485 501/521/487 491/522/488 490/520/486
f 501/521/487 502/523/489 492/524/490 491/522/488
f 502/523/489 503/525/491 493/526/492 492/524/490
f 503/525/491 504/527/493 494/563/494 493/526/492
f 504/564/493 495/509/475 485/512/478 494/528/494
f 475/529/495 476/530/496 496/510/476 495/509/475
f 476/530/496 477/531/497 497/513/479 496/510/476
f 477/531/497 478/532/498 498/515/481 497/513/479
f 478/532/498 479/533/499 499/517/483 498/515/481
f 479/533/499 480/534/500 500/519/485 499/517/483
f 480/534/500 481/535/501 501/521/487 500/519/485
f 481/535/501 482/536/502 502/523/489 501/521/487
f 482/536/502 483/537/503 503/525/491 502/523/489
f 483/537/503 484/538/504 504/527/493 503/525/491
f 484/559/504 475/529/495 495/509/475 504/564/493
f 485/512/478 486/511/477 505/539/505 506/540/506
f 486/511/477 487/514/480 507/541/507 505/539/505
f 487/514/480 488/516/482 508/542/508 507/541/507
f 488/516/482 489/518/484 509/543/509 508/542/508
f 489/518/484 490/520/486 510/544/510 509/543/509
f 490/520/486 491/522/488 511/545/511 510/544/510
f 491/522/488 492/524/490 512/546/512 511/545/511
f 492/524/490 493/526/492 513/547/513 512/546/512
f 493/526/492 494/563/494 514/561/514 513/547/513
f 494/528/494 485/512/478 506/540/506 514/548/514
f 506/540/506 505/539/505 455/490/456 456/489/455
f 505/539/505 507/541/507 457/491/457 455/490/456
f 507/541/507 508/542/508 458/492/458 457/491/457
f 508/542/508 509/543/509 459/493/459 458/492/458
f 509/543/509 510/544/510 460/494/460 459/493/459
f 510/544/510 511/545/511 461/495/461 460/494/460
f 511/545/511 512/546/512 462/496/462 461/495/461
f 512/546/512 513/547/513 463/497/463 462/496/462
f 513/547/513 514/561/514 464/498/464 463/497/463
f 514/548/514 506/540/506 456/489/455 464/562/464
f 475/529/495 515/549/515 516/550/516 476/530/496
f 476/530/496 516/550/516 517/551/517 477/531/497
f 477/531/497 517/551/517 518/552/518 478/532/498
f 478/532/498 518/552/518 519/553/519 479/533/499
f 479/533/499 519/553/519 520/554/520 480/534/500
f 480/534/500 520/554/520 521/555/521 481/535/501
f 481/535/501 521/555/521 522/556/522 482/536/502
f 482/536/502 522/556/522 523/557/523 483/537/503
f 483/537/503 523/557/523 524/558/524 484/538/504
f 484/559/504 524/560/524 515/549/515 475/529/495
