# This file uses centimeters as units for non-parametric coordinates.

mtllib Wall.mtl
g default
v -0.500000 0.000000 0.050000
v 0.500000 0.000000 0.050000
v -0.500000 2.500000 0.050000
v 0.500000 2.500000 0.050000
v -0.500000 2.500000 -0.050000
v 0.500000 2.500000 -0.050000
v -0.500000 0.000000 -0.050000
v 0.500000 0.000000 -0.050000
vt 0.418227 0.094866
vt 0.579776 0.094866
vt 0.418227 0.498739
vt 0.579776 0.498739
vt 0.418227 0.514894
vt 0.579776 0.514894
vt 0.418228 0.918767
vt 0.579777 0.918766
vt 0.418228 0.934922
vt 0.579777 0.934921
vt 0.595930 0.094866
vt 0.595931 0.498739
vt 0.402072 0.094866
vt 0.402072 0.498739
vn 0.000000 0.000000 1.000000
vn 0.000000 0.000000 1.000000
vn 0.000000 0.000000 1.000000
vn 0.000000 0.000000 1.000000
vn 0.000000 1.000000 0.000000
vn 0.000000 1.000000 0.000000
vn 0.000000 1.000000 0.000000
vn 0.000000 1.000000 0.000000
vn 0.000000 0.000000 -1.000000
vn 0.000000 0.000000 -1.000000
vn 0.000000 0.000000 -1.000000
vn 0.000000 0.000000 -1.000000
vn 0.000000 -1.000000 0.000000
vn 0.000000 -1.000000 0.000000
vn 0.000000 -1.000000 0.000000
vn 0.000000 -1.000000 0.000000
vn 1.000000 0.000000 0.000000
vn 1.000000 0.000000 0.000000
vn 1.000000 0.000000 0.000000
vn 1.000000 0.000000 0.000000
vn -1.000000 0.000000 0.000000
vn -1.000000 0.000000 0.000000
vn -1.000000 0.000000 0.000000
vn -1.000000 0.000000 0.000000
s off
g pCube1
usemtl initialShadingGroup
f 1/1/1 2/2/2 4/4/3 3/3/4
f 3/3/5 4/4/6 6/6/7 5/5/8
f 5/5/9 6/6/10 8/8/11 7/7/12
f 7/7/13 8/8/14 2/10/15 1/9/16
f 2/2/17 8/11/18 6/12/19 4/4/20
f 7/13/21 1/1/22 3/3/23 5/14/24
