# This file uses centimeters as units for non-parametric coordinates.

mtllib Fence.mtl
g default
v -0.500000 1.001958 0.100000
v 0.500000 1.001958 0.100000
v -0.500000 1.101958 0.100000
v 0.500000 1.101958 0.100000
v -0.500000 1.101958 -0.100000
v 0.500000 1.101958 -0.100000
v -0.500000 1.001958 -0.100000
v 0.500000 1.001958 -0.100000
vt 0.204517 0.513866
vt 0.787989 0.513863
vt 0.204518 0.572213
vt 0.787990 0.572210
vt 0.204518 0.688907
vt 0.787990 0.688905
vt 0.204518 0.747254
vt 0.787990 0.747252
vt 0.204519 0.863949
vt 0.787991 0.863946
vt 0.904684 0.513862
vt 0.904684 0.572210
vt 0.087823 0.513866
vt 0.087823 0.572213
vn 0.000000 0.000000 1.000000
vn 0.000000 0.000000 1.000000
vn 0.000000 0.000000 1.000000
vn 0.000000 0.000000 1.000000
vn 0.000000 1.000000 0.000000
vn 0.000000 1.000000 0.000000
vn 0.000000 1.000000 0.000000
vn 0.000000 1.000000 0.000000
vn 0.000000 0.000000 -1.000000
vn 0.000000 0.000000 -1.000000
vn 0.000000 0.000000 -1.000000
vn 0.000000 0.000000 -1.000000
vn 0.000000 -1.000000 0.000000
vn 0.000000 -1.000000 0.000000
vn 0.000000 -1.000000 0.000000
vn 0.000000 -1.000000 0.000000
vn 1.000000 0.000000 0.000000
vn 1.000000 0.000000 0.000000
vn 1.000000 0.000000 0.000000
vn 1.000000 0.000000 0.000000
vn -1.000000 0.000000 0.000000
vn -1.000000 0.000000 0.000000
vn -1.000000 0.000000 0.000000
vn -1.000000 0.000000 0.000000
s off
g pCube1 group4 group3 group2
usemtl initialShadingGroup
f 1/1/1 2/2/2 4/4/3 3/3/4
f 3/3/5 4/4/6 6/6/7 5/5/8
f 5/5/9 6/6/10 8/8/11 7/7/12
f 7/7/13 8/8/14 2/10/15 1/9/16
f 2/2/17 8/11/18 6/12/19 4/4/20
f 7/13/21 1/1/22 3/3/23 5/14/24
g default
v 0.300000 0.000988 0.050000
v 0.400000 0.000988 0.050000
v 0.300000 1.000988 0.050000
v 0.400000 1.000988 0.050000
v 0.300000 1.000988 -0.050000
v 0.400000 1.000988 -0.050000
v 0.300000 0.000988 -0.050000
v 0.400000 0.000988 -0.050000
vt 0.907194 0.145319
vt 0.907194 0.181740
vt 0.542976 0.145319
vt 0.542976 0.181741
vt 0.506554 0.145319
vt 0.506554 0.181741
vt 0.142336 0.145319
vt 0.142336 0.181741
vt 0.105915 0.145319
vt 0.105915 0.181741
vt 0.907194 0.218162
vt 0.542976 0.218162
vt 0.907194 0.108897
vt 0.542976 0.108897
vn 0.000000 0.000000 1.000000
vn 0.000000 0.000000 1.000000
vn 0.000000 0.000000 1.000000
vn 0.000000 0.000000 1.000000
vn 0.000000 1.000000 0.000000
vn 0.000000 1.000000 0.000000
vn 0.000000 1.000000 0.000000
vn 0.000000 1.000000 0.000000
vn 0.000000 0.000000 -1.000000
vn 0.000000 0.000000 -1.000000
vn 0.000000 0.000000 -1.000000
vn 0.000000 0.000000 -1.000000
vn 0.000000 -1.000000 0.000000
vn 0.000000 -1.000000 0.000000
vn 0.000000 -1.000000 0.000000
vn 0.000000 -1.000000 0.000000
vn 1.000000 0.000000 0.000000
vn 1.000000 0.000000 0.000000
vn 1.000000 0.000000 0.000000
vn 1.000000 0.000000 0.000000
vn -1.000000 0.000000 0.000000
vn -1.000000 0.000000 0.000000
vn -1.000000 0.000000 0.000000
vn -1.000000 0.000000 0.000000
s off
g group4 group3 group2 pasted__pasted__pCube2
usemtl initialShadingGroup
f 9/15/25 10/16/26 12/18/27 11/17/28
f 11/17/29 12/18/30 14/20/31 13/19/32
f 13/19/33 14/20/34 16/22/35 15/21/36
f 15/21/37 16/22/38 10/24/39 9/23/40
f 10/16/41 16/25/42 14/26/43 12/18/44
f 15/27/45 9/15/46 11/17/47 13/28/48
g default
v -0.050000 0.000988 0.050000
v 0.050000 0.000988 0.050000
v -0.050000 1.000988 0.050000
v 0.050000 1.000988 0.050000
v -0.050000 1.000988 -0.050000
v 0.050000 1.000988 -0.050000
v -0.050000 0.000988 -0.050000
v 0.050000 0.000988 -0.050000
vt 0.907194 0.281615
vt 0.907194 0.318037
vt 0.542976 0.281615
vt 0.542976 0.318037
vt 0.506554 0.281615
vt 0.506554 0.318037
vt 0.142336 0.281616
vt 0.142336 0.318037
vt 0.105915 0.281616
vt 0.105915 0.318037
vt 0.907194 0.354458
vt 0.542976 0.354459
vt 0.907194 0.245193
vt 0.542976 0.245193
vn 0.000000 0.000000 1.000000
vn 0.000000 0.000000 1.000000
vn 0.000000 0.000000 1.000000
vn 0.000000 0.000000 1.000000
vn 0.000000 1.000000 0.000000
vn 0.000000 1.000000 0.000000
vn 0.000000 1.000000 0.000000
vn 0.000000 1.000000 0.000000
vn 0.000000 0.000000 -1.000000
vn 0.000000 0.000000 -1.000000
vn 0.000000 0.000000 -1.000000
vn 0.000000 0.000000 -1.000000
vn 0.000000 -1.000000 0.000000
vn 0.000000 -1.000000 0.000000
vn 0.000000 -1.000000 0.000000
vn 0.000000 -1.000000 0.000000
vn 1.000000 0.000000 0.000000
vn 1.000000 0.000000 0.000000
vn 1.000000 0.000000 0.000000
vn 1.000000 0.000000 0.000000
vn -1.000000 0.000000 0.000000
vn -1.000000 0.000000 0.000000
vn -1.000000 0.000000 0.000000
vn -1.000000 0.000000 0.000000
s off
g group4 group3 group2 pCube2
usemtl initialShadingGroup
f 17/29/49 18/30/50 20/32/51 19/31/52
f 19/31/53 20/32/54 22/34/55 21/33/56
f 21/33/57 22/34/58 24/36/59 23/35/60
f 23/35/61 24/36/62 18/38/63 17/37/64
f 18/30/65 24/39/66 22/40/67 20/32/68
f 23/41/69 17/29/70 19/31/71 21/42/72
g default
v -0.400000 0.000988 0.050000
v -0.300000 0.000988 0.050000
v -0.400000 1.000988 0.050000
v -0.300000 1.000988 0.050000
v -0.400000 1.000988 -0.050000
v -0.300000 1.000988 -0.050000
v -0.400000 0.000988 -0.050000
v -0.300000 0.000988 -0.050000
vt 0.907194 0.422795
vt 0.907194 0.459217
vt 0.542976 0.422795
vt 0.542976 0.459217
vt 0.506554 0.422795
vt 0.506554 0.459217
vt 0.142336 0.422796
vt 0.142336 0.459217
vt 0.105915 0.422796
vt 0.105915 0.459217
vt 0.907194 0.495638
vt 0.542976 0.495639
vt 0.907194 0.386373
vt 0.542976 0.386373
vn 0.000000 0.000000 1.000000
vn 0.000000 0.000000 1.000000
vn 0.000000 0.000000 1.000000
vn 0.000000 0.000000 1.000000
vn 0.000000 1.000000 0.000000
vn 0.000000 1.000000 0.000000
vn 0.000000 1.000000 0.000000
vn 0.000000 1.000000 0.000000
vn 0.000000 0.000000 -1.000000
vn 0.000000 0.000000 -1.000000
vn 0.000000 0.000000 -1.000000
vn 0.000000 0.000000 -1.000000
vn 0.000000 -1.000000 0.000000
vn 0.000000 -1.000000 0.000000
vn 0.000000 -1.000000 0.000000
vn 0.000000 -1.000000 0.000000
vn 1.000000 0.000000 0.000000
vn 1.000000 0.000000 0.000000
vn 1.000000 0.000000 0.000000
vn 1.000000 0.000000 0.000000
vn -1.000000 0.000000 0.000000
vn -1.000000 0.000000 0.000000
vn -1.000000 0.000000 0.000000
vn -1.000000 0.000000 0.000000
s off
g group4 group3 group2 pasted__pCube2
usemtl initialShadingGroup
f 25/43/73 26/44/74 28/46/75 27/45/76
f 27/45/77 28/46/78 30/48/79 29/47/80
f 29/47/81 30/48/82 32/50/83 31/49/84
f 31/49/85 32/50/86 26/52/87 25/51/88
f 26/44/89 32/53/90 30/54/91 28/46/92
f 31/55/93 25/43/94 27/45/95 29/56/96
