# This file uses centimeters as units for non-parametric coordinates.

mtllib RoofEdge.mtl
g default
v -0.050000 -0.124058 3.000000
v 0.050000 -0.124058 3.000000
v -0.050000 1.842593 0.018747
v 0.050000 1.842593 0.018747
v -0.050000 1.842593 -0.018747
v 0.050000 1.842593 -0.018747
v -0.050000 -0.124058 -3.000000
v 0.050000 -0.124058 -3.000000
vt 0.668813 0.914227
vt 0.662540 0.914284
vt 0.666777 0.690209
vt 0.660505 0.690266
vt 0.666756 0.687857
vt 0.660483 0.687914
vt 0.664720 0.463840
vt 0.658448 0.463897
vt 0.661301 0.087497
vt 0.655028 0.087554
vt 0.452452 0.602021
vt 0.659192 0.688315
vt 0.873192 0.598197
vt 0.668054 0.688234
vn 0.000000 0.834735 0.550652
vn 0.000000 0.834735 0.550652
vn 0.000000 0.834735 0.550652
vn 0.000000 0.834735 0.550652
vn 0.000000 1.000000 0.000000
vn 0.000000 1.000000 0.000000
vn 0.000000 1.000000 0.000000
vn 0.000000 1.000000 0.000000
vn 0.000000 0.834735 -0.550652
vn 0.000000 0.834735 -0.550652
vn 0.000000 0.834735 -0.550652
vn 0.000000 0.834735 -0.550652
vn 0.000000 -1.000000 0.000000
vn 0.000000 -1.000000 0.000000
vn 0.000000 -1.000000 0.000000
vn 0.000000 -1.000000 0.000000
vn 1.000000 0.000000 0.000000
vn 1.000000 0.000000 0.000000
vn 1.000000 0.000000 0.000000
vn 1.000000 0.000000 0.000000
vn -1.000000 0.000000 0.000000
vn -1.000000 0.000000 0.000000
vn -1.000000 0.000000 0.000000
vn -1.000000 0.000000 0.000000
s off
g pCube2 group2
usemtl initialShadingGroup
f 1/1/1 2/2/2 4/4/3 3/3/4
f 3/3/5 4/4/6 6/6/7 5/5/8
f 5/5/9 6/6/10 8/8/11 7/7/12
f 7/7/13 8/8/14 2/10/15 1/9/16
f 2/2/17 8/11/18 6/12/19 4/4/20
f 7/13/21 1/1/22 3/3/23 5/14/24
g default
v -0.100000 -0.150000 3.000000
v 0.000000 -0.150000 3.000000
v 0.100000 -0.150000 3.000000
v -0.100000 0.150000 3.000000
v 0.000000 0.150000 3.000000
v 0.100000 0.150000 3.000000
v -0.100000 2.150000 0.000000
v 0.000000 2.150000 0.000000
v 0.100000 2.150000 0.000000
v -0.100000 0.150000 -3.000000
v 0.000000 0.150000 -3.000000
v 0.100000 0.150000 -3.000000
v -0.100000 -0.150000 -3.000000
v 0.000000 -0.150000 -3.000000
v 0.100000 -0.150000 -3.000000
v -0.100000 1.850000 0.000000
v 0.000000 1.850000 0.000000
v 0.100000 1.850000 0.000000
v -0.100000 0.004153 3.169135
v 0.000000 0.004153 3.169135
v 0.000000 0.304153 3.169135
v -0.100000 0.304153 3.169135
v 0.100000 0.004153 3.169135
v 0.100000 0.304153 3.169135
v -0.100000 0.304153 -3.169135
v 0.000000 0.304153 -3.169135
v 0.000000 0.004153 -3.169135
v -0.100000 0.004153 -3.169135
v 0.100000 0.304153 -3.169135
v 0.100000 0.004153 -3.169135
v -0.100000 0.450020 2.980195
v 0.000000 0.450020 2.980195
v -0.100000 0.604173 3.061151
v 0.000000 0.604173 3.061151
v 0.100000 0.450020 2.980195
v 0.100000 0.604173 3.061151
v -0.100000 0.450020 -2.980195
v 0.000000 0.450020 -2.980195
v 0.000000 0.604173 -3.061151
v -0.100000 0.604173 -3.061151
v 0.100000 0.450020 -2.980195
v 0.100000 0.604173 -3.061151
v -0.100000 0.642922 2.998874
v 0.000000 0.642922 2.998874
v -0.100000 0.797075 3.061151
v 0.000000 0.797075 3.061151
v 0.100000 0.642922 2.998874
v 0.100000 0.797075 3.061151
v -0.100000 0.642922 -2.998874
v 0.000000 0.642922 -2.998874
v 0.000000 0.797075 -3.061151
v -0.100000 0.797075 -3.061151
v 0.100000 0.642922 -2.998874
v 0.100000 0.797075 -3.061151
vt 0.328361 0.274343
vt 0.339645 0.272916
vt 0.350671 0.275484
vt 0.315473 0.280885
vt 0.338755 0.281469
vt 0.362888 0.283173
vt 0.324966 0.428009
vt 0.329027 0.428471
vt 0.333101 0.428854
vt 0.285430 0.573366
vt 0.318278 0.575102
vt 0.350043 0.576446
vt 0.312640 0.591032
vt 0.316953 0.591153
vt 0.321241 0.591463
vt 0.306221 0.738013
vt 0.310297 0.738182
vt 0.314373 0.738374
vt 0.299786 0.884965
vt 0.303859 0.885227
vt 0.307941 0.885325
vt 0.571917 0.122127
vt 0.486573 0.231999
vt 0.574956 0.134485
vt 0.493247 0.241195
vt 0.117788 0.105484
vt 0.196785 0.219514
vt 0.114123 0.117693
vt 0.189522 0.228171
vt 0.332064 0.276524
vt 0.339545 0.276314
vt 0.339043 0.276594
vt 0.332447 0.276515
vt 0.346893 0.277983
vt 0.345855 0.278519
vt 0.309471 0.578538
vt 0.318020 0.580216
vt 0.317323 0.582970
vt 0.308727 0.581873
vt 0.326270 0.580390
vt 0.326072 0.582687
vt 0.334852 0.281100
vt 0.331346 0.279777
vt 0.335423 0.276587
vt 0.338983 0.277023
vt 0.341412 0.281370
vt 0.339960 0.279295
vt 0.314812 0.575099
vt 0.322819 0.575501
vt 0.318248 0.579848
vt 0.317032 0.577345
vt 0.326799 0.577013
vt 0.322058 0.580256
vt 0.335000 0.280270
vt 0.334265 0.278058
vt 0.336391 0.276716
vt 0.337277 0.278915
vt 0.338427 0.281239
vt 0.337884 0.281083
vt 0.318755 0.575307
vt 0.322449 0.576381
vt 0.320050 0.577783
vt 0.319401 0.575497
vt 0.323282 0.578760
vt 0.320917 0.580133
vn 0.000000 0.000000 1.000000
vn 0.000000 0.000000 1.000000
vn 0.000000 0.000000 1.000000
vn 0.000000 0.000000 1.000000
vn 0.000000 0.000000 1.000000
vn 0.000000 0.000000 1.000000
vn 0.000000 0.832050 0.554700
vn 0.000000 0.832050 0.554700
vn 0.000000 1.000000 0.000000
vn 0.000000 1.000000 0.000000
vn 0.000000 0.832050 0.554700
vn 0.000000 1.000000 0.000000
vn 0.000000 0.832050 -0.554700
vn 0.000000 0.832050 -0.554700
vn 0.000000 0.832050 -0.554700
vn 0.000000 0.000000 -1.000000
vn 0.000000 0.000000 -1.000000
vn 0.000000 0.000000 -1.000000
vn 0.000000 0.000000 -1.000000
vn 0.000000 0.000000 -1.000000
vn 0.000000 0.000000 -1.000000
vn 0.000000 -0.832050 0.554700
vn 0.000000 -0.832050 0.554700
vn 0.000000 -1.000000 0.000000
vn 0.000000 -1.000000 0.000000
vn 0.000000 -0.832050 0.554700
vn 0.000000 -1.000000 0.000000
vn 0.000000 -0.832050 -0.554700
vn 0.000000 -0.832050 -0.554700
vn 0.000000 -0.832050 -0.554700
vn 1.000000 0.000000 0.000000
vn 1.000000 0.000000 0.000000
vn 1.000000 0.000000 0.000000
vn 1.000000 0.000000 0.000000
vn 1.000000 0.000000 0.000000
vn 1.000000 0.000000 0.000000
vn -1.000000 0.000000 0.000000
vn -1.000000 0.000000 0.000000
vn -1.000000 0.000000 0.000000
vn -1.000000 0.000000 0.000000
vn -1.000000 0.000000 0.000000
vn -1.000000 0.000000 0.000000
vn 0.000000 -0.739081 0.673616
vn 0.000000 -0.739081 0.673616
vn 0.000000 -0.739081 0.673616
vn 0.000000 -0.739081 0.673616
vn 0.000000 0.374582 -0.927194
vn 0.000000 0.374582 -0.927194
vn 0.000000 0.374582 -0.927194
vn 0.000000 0.374582 -0.927194
vn -1.000000 0.000000 0.000000
vn -1.000000 0.000000 0.000000
vn -1.000000 0.000000 0.000000
vn -1.000000 0.000000 0.000000
vn 0.000000 -0.739081 0.673616
vn 0.000000 -0.739081 0.673616
vn 0.000000 -0.739081 0.673616
vn 0.000000 -0.739081 0.673616
vn 1.000000 0.000000 0.000000
vn 1.000000 0.000000 0.000000
vn 1.000000 0.000000 0.000000
vn 1.000000 0.000000 0.000000
vn 0.000000 0.374582 -0.927194
vn 0.000000 0.374582 -0.927194
vn 0.000000 0.374582 -0.927194
vn 0.000000 0.374582 -0.927194
vn 0.000000 0.374582 0.927194
vn 0.000000 0.374582 0.927194
vn 0.000000 0.374582 0.927194
vn 0.000000 0.374582 0.927194
vn 0.000000 -0.739081 -0.673616
vn 0.000000 -0.739081 -0.673616
vn 0.000000 -0.739081 -0.673616
vn 0.000000 -0.739081 -0.673616
vn -1.000000 0.000000 0.000000
vn -1.000000 0.000000 0.000000
vn -1.000000 0.000000 0.000000
vn -1.000000 0.000000 0.000000
vn 0.000000 0.374582 0.927194
vn 0.000000 0.374582 0.927194
vn 0.000000 0.374582 0.927194
vn 0.000000 0.374582 0.927194
vn 1.000000 0.000000 0.000000
vn 1.000000 0.000000 0.000000
vn 1.000000 0.000000 0.000000
vn 1.000000 0.000000 0.000000
vn 0.000000 -0.739081 -0.673616
vn 0.000000 -0.739081 -0.673616
vn 0.000000 -0.739081 -0.673616
vn 0.000000 -0.739081 -0.673616
vn 0.000000 -0.065870 -0.997828
vn 0.000000 -0.065870 -0.997828
vn 0.000000 -0.065870 -0.997828
vn 0.000000 -0.065870 -0.997828
vn -1.000000 0.000000 0.000000
vn -1.000000 0.000000 0.000000
vn -1.000000 0.000000 0.000000
vn -1.000000 0.000000 0.000000
vn 0.000000 0.338654 0.940911
vn 0.000000 0.338654 0.940911
vn 0.000000 0.338654 0.940911
vn 0.000000 0.338654 0.940911
vn 0.000000 -0.065870 -0.997828
vn 0.000000 -0.065870 -0.997828
vn 0.000000 -0.065870 -0.997828
vn 0.000000 -0.065870 -0.997828
vn 0.000000 0.338654 0.940911
vn 0.000000 0.338654 0.940911
vn 0.000000 0.338654 0.940911
vn 0.000000 0.338654 0.940911
vn 1.000000 0.000000 0.000000
vn 1.000000 0.000000 0.000000
vn 1.000000 0.000000 0.000000
vn 1.000000 0.000000 0.000000
vn 0.000000 -0.065870 0.997828
vn 0.000000 -0.065870 0.997828
vn 0.000000 -0.065870 0.997828
vn 0.000000 -0.065870 0.997828
vn 0.000000 0.338654 -0.940911
vn 0.000000 0.338654 -0.940911
vn 0.000000 0.338654 -0.940911
vn 0.000000 0.338654 -0.940911
vn -1.000000 0.000000 0.000000
vn -1.000000 0.000000 0.000000
vn -1.000000 0.000000 0.000000
vn -1.000000 0.000000 0.000000
vn 0.000000 -0.065870 0.997828
vn 0.000000 -0.065870 0.997828
vn 0.000000 -0.065870 0.997828
vn 0.000000 -0.065870 0.997828
vn 1.000000 0.000000 0.000000
vn 1.000000 0.000000 0.000000
vn 1.000000 0.000000 0.000000
vn 1.000000 0.000000 0.000000
vn 0.000000 0.338654 -0.940911
vn 0.000000 0.338654 -0.940911
vn 0.000000 0.338654 -0.940911
vn 0.000000 0.338654 -0.940911
vn 0.000000 0.096380 -0.995345
vn 0.000000 0.096380 -0.995345
vn 0.000000 0.096380 -0.995345
vn 0.000000 0.096380 -0.995345
vn -1.000000 0.000000 0.000000
vn -1.000000 0.000000 0.000000
vn -1.000000 0.000000 0.000000
vn -1.000000 0.000000 0.000000
vn 0.000000 0.000000 1.000000
vn 0.000000 0.000000 1.000000
vn 0.000000 0.000000 1.000000
vn 0.000000 0.000000 1.000000
vn 0.000000 0.096380 -0.995345
vn 0.000000 0.096380 -0.995345
vn 0.000000 0.096380 -0.995345
vn 0.000000 0.096380 -0.995345
vn 0.000000 0.000000 1.000000
vn 0.000000 0.000000 1.000000
vn 0.000000 0.000000 1.000000
vn 0.000000 0.000000 1.000000
vn 1.000000 0.000000 0.000000
vn 1.000000 0.000000 0.000000
vn 1.000000 0.000000 0.000000
vn 1.000000 0.000000 0.000000
vn 0.000000 0.096380 0.995345
vn 0.000000 0.096380 0.995345
vn 0.000000 0.096380 0.995345
vn 0.000000 0.096380 0.995345
vn 0.000000 0.000000 -1.000000
vn 0.000000 0.000000 -1.000000
vn 0.000000 0.000000 -1.000000
vn 0.000000 0.000000 -1.000000
vn -1.000000 0.000000 0.000000
vn -1.000000 0.000000 0.000000
vn -1.000000 0.000000 0.000000
vn -1.000000 0.000000 0.000000
vn 0.000000 0.096380 0.995345
vn 0.000000 0.096380 0.995345
vn 0.000000 0.096380 0.995345
vn 0.000000 0.096380 0.995345
vn 1.000000 0.000000 0.000000
vn 1.000000 0.000000 0.000000
vn 1.000000 0.000000 0.000000
vn 1.000000 0.000000 0.000000
vn 0.000000 0.000000 -1.000000
vn 0.000000 0.000000 -1.000000
vn 0.000000 0.000000 -1.000000
vn 0.000000 0.000000 -1.000000
s 1
g group2 pCube1
usemtl initialShadingGroup
f 27/44/25 28/45/26 29/46/27 30/47/28
f 28/45/26 31/48/29 32/49/30 29/46/27
s 2
f 12/18/31 13/19/32 16/22/33 15/21/34
f 13/19/32 14/20/35 17/23/36 16/22/33
f 15/21/34 16/22/33 19/25/37 18/24/38
f 16/22/33 17/23/36 20/26/39 19/25/37
s 3
f 33/50/40 34/51/41 35/52/42 36/53/43
f 34/51/41 37/54/44 38/55/45 35/52/42
s 4
f 21/27/46 22/28/47 25/31/48 24/30/49
f 22/28/47 23/29/50 26/32/51 25/31/48
f 24/30/49 25/31/48 10/34/52 9/33/53
f 25/31/48 26/32/51 11/35/54 10/34/52
s 5
f 26/37/55 23/36/56 20/38/57 17/39/58
f 11/17/59 26/37/55 17/39/58 14/20/60
s 6
f 21/40/61 24/41/62 15/43/63 18/42/64
f 24/41/62 9/15/65 12/18/66 15/43/63
s off
f 9/15/67 10/16/68 28/45/69 27/44/70
f 52/68/71 51/69/72 53/70/73 54/71/74
f 12/18/75 9/15/76 27/44/77 30/47/78
f 10/16/79 11/17/80 31/48/81 28/45/82
f 11/17/83 14/20/84 32/49/85 31/48/86
f 55/72/87 52/68/88 54/71/89 56/73/90
f 57/74/91 58/75/92 59/76/93 60/77/94
f 22/28/95 21/27/96 36/53/97 35/52/98
f 21/27/99 18/24/100 33/50/101 36/53/102
f 58/75/103 61/78/104 62/79/105 59/76/106
f 20/26/107 23/29/108 38/55/109 37/54/110
f 23/29/111 22/28/112 35/52/113 38/55/114
f 13/19/115 12/18/116 39/57/117 40/56/118
f 12/18/119 30/47/120 41/58/121 39/57/122
f 30/47/123 29/46/124 42/59/125 41/58/126
f 14/20/127 13/19/128 40/56/129 43/60/130
f 29/46/131 32/49/132 44/61/133 42/59/134
f 32/49/135 14/20/136 43/60/137 44/61/138
f 18/24/139 19/25/140 46/63/141 45/62/142
f 34/51/143 33/50/144 48/65/145 47/64/146
f 33/50/147 18/24/148 45/62/149 48/65/150
f 19/25/151 20/26/152 49/66/153 46/63/154
f 20/26/155 37/54/156 50/67/157 49/66/158
f 37/54/159 34/51/160 47/64/161 50/67/162
f 40/56/163 39/57/164 51/69/165 52/68/166
f 39/57/167 41/58/168 53/70/169 51/69/170
f 41/58/171 42/59/172 54/71/173 53/70/174
f 43/60/175 40/56/176 52/68/177 55/72/178
f 42/59/179 44/61/180 56/73/181 54/71/182
f 44/61/183 43/60/184 55/72/185 56/73/186
f 45/62/187 46/63/188 58/75/189 57/74/190
f 47/64/191 48/65/192 60/77/193 59/76/194
f 48/65/195 45/62/196 57/74/197 60/77/198
f 46/63/199 49/66/200 61/78/201 58/75/202
f 49/66/203 50/67/204 62/79/205 61/78/206
f 50/67/207 47/64/208 59/76/209 62/79/210
