# This file uses centimeters as units for non-parametric coordinates.

mtllib Pillar.mtl
g default
v 0.088388 0.000000 -0.088388
v 0.000000 0.000000 -0.125000
v -0.088388 0.000000 -0.088388
v -0.125000 0.000000 0.000000
v -0.088388 0.000000 0.088388
v 0.000000 0.000000 0.125000
v 0.088388 0.000000 0.088388
v 0.125000 0.000000 0.000000
v 0.088388 2.500000 -0.088388
v 0.000000 2.500000 -0.125000
v -0.088388 2.500000 -0.088388
v -0.125000 2.500000 0.000000
v -0.088388 2.500000 0.088388
v 0.000000 2.500000 0.125000
v 0.088388 2.500000 0.088388
v 0.125000 2.500000 0.000000
v 0.000000 0.000000 0.000000
v 0.000000 2.500000 0.000000
vt 0.610485 0.173668
vt 0.500000 0.127903
vt 0.389515 0.173668
vt 0.343750 0.284153
vt 0.389515 0.394639
vt 0.500000 0.440403
vt 0.610485 0.394639
vt 0.656250 0.284153
vt 0.688863 0.221480
vt 0.710034 0.221955
vt 0.731206 0.222431
vt 0.752377 0.222906
vt 0.773549 0.223381
vt 0.794720 0.223857
vt 0.815892 0.224332
vt 0.837063 0.224807
vt 0.858235 0.225283
vt 0.676443 0.774717
vt 0.697614 0.775193
vt 0.718786 0.775668
vt 0.739957 0.776143
vt 0.761129 0.776619
vt 0.782300 0.777094
vt 0.803472 0.777569
vt 0.824643 0.778045
vt 0.845815 0.778520
vt 0.610485 0.584394
vt 0.500000 0.538629
vt 0.389515 0.584394
vt 0.343750 0.694879
vt 0.389515 0.805364
vt 0.500000 0.851129
vt 0.610485 0.805364
vt 0.656250 0.694879
vt 0.500000 0.284153
vt 0.500000 0.694879
vn 0.382683 0.000000 -0.923880
vn 0.382683 0.000000 -0.923880
vn 0.382683 0.000000 -0.923880
vn 0.382683 0.000000 -0.923880
vn -0.382683 0.000000 -0.923880
vn -0.382683 0.000000 -0.923880
vn -0.382683 0.000000 -0.923880
vn -0.382683 0.000000 -0.923880
vn -0.923880 0.000000 -0.382683
vn -0.923880 0.000000 -0.382683
vn -0.923880 0.000000 -0.382683
vn -0.923880 0.000000 -0.382683
vn -0.923880 0.000000 0.382683
vn -0.923880 0.000000 0.382683
vn -0.923880 0.000000 0.382683
vn -0.923880 0.000000 0.382683
vn -0.382683 0.000000 0.923880
vn -0.382683 0.000000 0.923880
vn -0.382683 0.000000 0.923880
vn -0.382683 0.000000 0.923880
vn 0.382683 0.000000 0.923880
vn 0.382683 0.000000 0.923880
vn 0.382683 0.000000 0.923880
vn 0.382683 0.000000 0.923880
vn 0.923880 0.000000 0.382683
vn 0.923880 0.000000 0.382683
vn 0.923880 0.000000 0.382683
vn 0.923880 0.000000 0.382683
vn 0.923880 0.000000 -0.382684
vn 0.923880 0.000000 -0.382684
vn 0.923880 0.000000 -0.382684
vn 0.923880 0.000000 -0.382684
vn 0.000000 -1.000000 0.000000
vn 0.000000 -1.000000 0.000000
vn 0.000000 -1.000000 -0.000000
vn 0.000000 -1.000000 -0.000001
vn 0.000000 -1.000000 -0.000001
vn 0.000000 -1.000000 0.000001
vn 0.000000 -1.000000 0.000000
vn 0.000000 -1.000000 0.000000
vn 0.000000 -1.000000 0.000000
vn 0.000000 1.000000 0.000000
vn 0.000000 1.000000 0.000000
vn 0.000000 1.000000 0.000000
vn 0.000000 1.000000 -0.000001
vn 0.000000 1.000000 0.000001
vn 0.000000 1.000000 0.000001
vn 0.000000 1.000000 0.000000
vn 0.000000 1.000000 0.000000
vn 0.000000 1.000000 0.000000
s off
g pCylinder1
usemtl initialShadingGroup
f 1/9/1 2/10/2 10/19/3 9/18/4
f 2/10/5 3/11/6 11/20/7 10/19/8
f 3/11/9 4/12/10 12/21/11 11/20/12
f 4/12/13 5/13/14 13/22/15 12/21/16
f 5/13/17 6/14/18 14/23/19 13/22/20
f 6/14/21 7/15/22 15/24/23 14/23/24
f 7/15/25 8/16/26 16/25/27 15/24/28
f 8/16/29 1/17/30 9/26/31 16/25/32
s 1
f 2/2/33 1/1/34 17/35/35
f 3/3/36 2/2/33 17/35/35
f 4/4/37 3/3/36 17/35/35
f 5/5/38 4/4/37 17/35/35
f 6/6/39 5/5/38 17/35/35
f 7/7/40 6/6/39 17/35/35
f 8/8/41 7/7/40 17/35/35
f 1/1/34 8/8/41 17/35/35
s 2
f 9/33/42 10/32/43 18/36/44
f 10/32/43 11/31/45 18/36/44
f 11/31/45 12/30/46 18/36/44
f 12/30/46 13/29/47 18/36/44
f 13/29/47 14/28/48 18/36/44
f 14/28/48 15/27/49 18/36/44
f 15/27/49 16/34/50 18/36/44
f 16/34/50 9/33/42 18/36/44
