# This file uses centimeters as units for non-parametric coordinates.

mtllib Book.mtl
g default
v -0.154648 -0.000365 0.116354
v 0.154648 -0.000365 0.116354
v -0.154648 0.002979 0.116354
v 0.154648 0.002979 0.116354
v -0.154648 0.002979 -0.116354
v 0.154648 0.002979 -0.116354
v -0.154648 -0.000365 -0.116354
v 0.154648 -0.000365 -0.116354
v -0.149157 0.002979 0.105257
v 0.149157 0.002979 0.105257
v 0.149157 0.002979 -0.105257
v -0.149157 0.002979 -0.105257
v -0.135563 0.010015 0.105257
v 0.135563 0.010015 0.105257
v 0.135563 0.010015 -0.105257
v -0.135563 0.010015 -0.105257
v 0.000000 -0.000365 0.116354
v 0.000000 0.002979 0.116354
v 0.000000 0.002979 0.105257
v 0.000000 0.004650 0.105257
v 0.000000 0.004650 -0.105257
v 0.000000 0.002979 -0.105257
v 0.000000 0.002979 -0.116354
v 0.000000 -0.000365 -0.116354
v -0.110351 0.010326 0.105257
v -0.110351 0.010326 -0.105257
v 0.110351 0.010326 0.105257
v 0.110351 0.010326 -0.105257
v -0.030132 0.012730 0.105257
v -0.030132 0.012730 -0.105257
v 0.030132 0.012730 0.105257
v 0.030132 0.012730 -0.105257
v -0.006443 0.010813 0.105257
v -0.006443 0.010813 -0.105257
v 0.003697 0.010813 0.105257
v 0.003697 0.010813 -0.105257
v -0.006334 -0.000365 0.116354
v -0.006334 -0.000365 -0.116354
v 0.006334 -0.000365 0.116354
v 0.006334 -0.000365 -0.116354
v 0.000000 -0.003081 -0.116354
v 0.000000 -0.003081 0.116354
v 0.006334 -0.003081 -0.116354
v 0.006334 -0.003081 0.116354
v -0.006334 -0.003081 -0.116354
v -0.006334 -0.003081 0.116354
vt 0.296928 0.930147
vt 0.704502 0.778859
vt 0.298463 0.933610
vt 0.706422 0.776091
vt 0.037619 0.933610
vt 0.380060 0.776091
vt 0.039153 0.930147
vt 0.381979 0.778859
vt 0.052505 0.041931
vt 0.864948 0.041931
vt 0.362886 0.776091
vt 0.052505 0.664813
vt 0.092304 0.051431
vt 0.825328 0.051373
vt 0.825324 0.655365
vt 0.092300 0.655312
vt 0.340389 0.962364
vt 0.344880 0.962357
vt 0.723596 0.977022
vt 0.458718 0.046710
vt 0.458715 0.660030
vt 0.458726 0.664813
vt 0.377753 0.977022
vt 0.022007 0.963064
vt 0.158375 0.057251
vt 0.158377 0.649492
vt 0.759544 0.057103
vt 0.759541 0.649633
vt 0.374011 0.060279
vt 0.374011 0.646461
vt 0.544848 0.059815
vt 0.544848 0.646926
vt 0.437728 0.055186
vt 0.437731 0.651554
vt 0.474047 0.054401
vt 0.474047 0.652341
vt 0.337639 0.974432
vt 0.024795 0.974932
vt 0.337600 0.950496
vt 0.024756 0.950996
vt 0.024949 0.962963
vt 0.024898 0.954575
vt 0.337483 0.954059
vt 0.337446 0.962464
vt 0.337498 0.970852
vt 0.024912 0.971369
vt 0.023892 0.682211
vt 0.864948 0.664813
vt 0.458726 0.041931
vt 0.689248 0.776091
vt 0.051345 0.933610
vt 0.312189 0.933610
vt 0.387349 0.977022
vt 0.699133 0.977022
vt 0.035775 0.682211
vt 0.708729 0.977022
vt 0.362886 0.977022
vt 0.312189 0.682211
vt 0.043444 0.682211
vt 0.292637 0.682211
vt 0.017515 0.963071
vt 0.300306 0.682211
vt 0.023892 0.933610
vt 0.397234 0.776091
vt 0.723596 0.776091
vt 0.284736 0.933610
vn -0.012312 0.999924 0.000000
vn -0.025738 0.999669 0.000000
vn -0.025738 0.999669 0.000000
vn -0.012312 0.999924 0.000000
vn 1.000000 0.000000 0.000000
vn 1.000000 0.000000 0.000000
vn 1.000000 0.000000 0.000000
vn 1.000000 0.000000 0.000000
vn -1.000000 0.000000 0.000000
vn -1.000000 0.000000 0.000000
vn -1.000000 0.000000 0.000000
vn -1.000000 0.000000 0.000000
vn 0.000000 1.000000 0.000000
vn 0.000000 1.000000 0.000000
vn 0.000000 1.000000 0.000000
vn 0.000000 1.000000 0.000000
vn 0.000000 1.000000 0.000000
vn 0.000000 1.000000 0.000000
vn 0.000000 1.000000 0.000000
vn 0.000000 1.000000 0.000000
vn -0.000000 -0.000002 1.000000
vn -0.000000 0.000001 1.000000
vn 0.000001 0.000000 1.000000
vn 0.459663 0.888094 0.000000
vn 0.459663 0.888094 0.000000
vn 0.459663 0.888094 0.000000
vn 0.459663 0.888094 0.000000
vn -0.000000 0.000001 -1.000000
vn -0.000000 -0.000002 -1.000000
vn 0.000001 0.000000 -1.000000
vn -0.459662 0.888094 0.000000
vn -0.459662 0.888094 0.000000
vn -0.459662 0.888094 0.000000
vn -0.459662 0.888094 0.000000
vn 0.000000 0.000000 1.000000
vn 0.000000 0.000000 1.000000
vn -0.000000 0.000000 1.000000
vn -0.000000 0.000000 -1.000000
vn 0.000000 0.000000 -1.000000
vn 0.000000 0.000000 -1.000000
vn 0.000000 -1.000000 0.000000
vn 0.000000 -1.000000 0.000000
vn 0.000000 -1.000000 0.000000
vn 0.000000 -1.000000 0.000000
vn -0.000000 0.000000 1.000000
vn -0.004694 0.999989 0.000000
vn -0.004694 0.999989 0.000000
vn -0.000000 0.000000 -1.000000
vn 0.000000 0.000001 1.000000
vn -0.000000 -0.000002 1.000000
vn 0.000000 0.000000 1.000000
vn 0.025738 0.999669 0.000000
vn 0.025738 0.999669 0.000000
vn 0.012312 0.999924 0.000000
vn 0.012312 0.999924 0.000000
vn -0.000000 -0.000002 -1.000000
vn 0.000000 0.000001 -1.000000
vn 0.000000 0.000000 -1.000000
vn 0.000000 -0.000001 1.000000
vn 0.259000 0.965877 0.000000
vn 0.259000 0.965877 0.000000
vn 0.000000 -0.000001 -1.000000
vn 0.000000 0.000000 1.000000
vn 0.004574 0.999990 0.000000
vn 0.004574 0.999990 0.000000
vn 0.000000 0.000000 -1.000000
vn 0.000000 0.000000 1.000000
vn 0.000000 0.000000 1.000000
vn 0.000000 0.000000 1.000000
vn -0.000000 1.000000 0.000000
vn -0.000000 1.000000 0.000000
vn 0.000000 1.000000 0.000000
vn 0.000000 1.000000 0.000000
vn -0.000000 -0.000002 1.000000
vn -0.000000 -0.000002 1.000000
vn -0.000001 1.000000 0.000000
vn -0.000001 1.000000 0.000000
vn -0.000000 -0.000002 -1.000000
vn -0.000000 -0.000002 -1.000000
vn 0.000000 1.000000 0.000000
vn 0.000000 1.000000 0.000000
vn -0.000000 1.000000 0.000000
vn -0.000000 1.000000 0.000000
vn 0.000000 0.000000 -1.000000
vn 0.000000 0.000000 -1.000000
vn 0.000000 0.000000 -1.000000
vn 0.000000 -1.000000 0.000000
vn 0.000000 -1.000000 0.000000
vn 0.000000 -1.000000 0.000000
vn 0.000000 -1.000000 0.000000
vn 0.000000 -0.000001 1.000000
vn -0.259000 0.965877 0.000000
vn -0.259000 0.965877 0.000000
vn 0.000000 -0.000001 -1.000000
vn 0.000000 -1.000000 0.000000
vn 0.000000 -1.000000 0.000000
vn -0.000000 0.000000 1.000000
vn -0.000000 0.000000 1.000000
vn 0.000000 1.000000 0.000000
vn 0.000000 1.000000 0.000000
vn 0.000000 1.000000 0.000000
vn 0.000000 1.000000 0.000000
vn 0.000000 0.000000 -1.000000
vn 0.000000 0.000000 -1.000000
vn -0.000000 -1.000000 0.000000
vn -0.000000 -1.000000 0.000000
vn -0.000000 -1.000000 0.000000
vn -0.000000 -1.000000 0.000000
vn 0.000000 0.000000 -1.000000
vn 0.000000 0.000000 -1.000000
vn 0.000000 0.000000 -1.000000
vn 0.000000 0.000000 -1.000000
vn 1.000000 0.000000 0.000000
vn 1.000000 0.000000 0.000000
vn 1.000000 0.000000 0.000000
vn 1.000000 0.000000 0.000000
vn 0.000000 0.000000 1.000000
vn 0.000000 0.000000 1.000000
vn 0.000000 0.000000 1.000000
vn 0.000000 0.000000 1.000000
vn -1.000000 0.000000 0.000000
vn -1.000000 0.000000 0.000000
vn -1.000000 0.000000 0.000000
vn -1.000000 0.000000 0.000000
vn 0.000000 0.000000 -1.000000
vn 0.000000 0.000000 -1.000000
vn 0.000000 0.000000 -1.000000
vn 0.000000 0.000000 -1.000000
vn 0.000000 0.000000 1.000000
vn 0.000000 0.000000 1.000000
vn 0.000000 0.000000 1.000000
vn 0.000000 0.000000 1.000000
s 1
g pCube1
usemtl initialShadingGroup
f 13/13/1 25/25/2 26/26/3 16/16/4
s off
f 2/2/5 8/8/6 6/6/7 4/4/8
f 7/7/9 1/1/10 3/3/11 5/5/12
f 4/4/13 6/6/14 11/64/15 10/50/16
f 5/5/17 3/3/18 9/66/19 12/51/20
s 2
f 9/9/21 25/25/22 13/13/23
s off
f 10/10/24 11/48/25 15/15/26 14/14/27
s 3
f 26/26/28 12/12/29 16/16/30
s off
f 12/12/31 9/9/32 13/13/33 16/16/34
s 4
f 18/18/35 17/17/36 39/39/37
s 5
f 24/24/38 23/61/39 40/40/40
s 6
f 42/44/41 41/41/42 43/42/43 44/43/44
s 2
f 25/25/22 9/9/21 29/29/45
s 1
f 26/26/3 25/25/2 29/29/46 30/30/47
s 3
f 30/30/48 12/12/29 26/26/28
s 2
f 27/27/49 10/10/50 14/14/51
s 1
f 28/28/52 27/27/53 14/14/54 15/15/55
s 3
f 11/48/56 28/28/57 15/15/58
s 2
f 29/29/45 9/9/21 33/33/59
s 1
f 30/30/47 29/29/46 33/33/60 34/34/61
s 3
f 34/34/62 12/12/29 30/30/48
s 2
f 31/31/63 10/10/50 27/27/49
s 1
f 32/32/64 31/31/65 27/27/53 28/28/52
s 3
f 28/28/57 11/48/56 32/32/66
s 4
f 3/3/67 1/1/68 37/60/69 18/62/35
s 10
f 9/52/70 3/3/71 18/62/72 19/58/73
s 2
f 33/33/59 9/9/21 19/49/74 20/20/75
s 1
f 34/34/61 33/33/60 20/20/76 21/21/77
s 3
f 21/21/78 22/22/79 12/12/29 34/34/62
s 11
f 22/47/80 23/55/81 5/5/82 12/63/83
s 5
f 7/7/84 5/5/85 23/55/39 38/59/86
s off
f 1/1/87 7/7/88 38/59/89 37/60/90
s 2
f 35/35/91 10/10/50 31/31/63
s 1
f 36/36/92 35/35/93 31/31/65 32/32/64
s 3
f 32/32/66 11/48/56 36/36/94
s 4
f 18/18/35 37/37/69 17/17/36
s 5
f 38/38/86 23/61/39 24/24/38
s 6
f 46/45/95 45/46/96 41/41/42 42/44/41
s 4
f 18/56/35 39/54/37 2/2/97 4/4/98
s 10
f 19/19/73 18/56/72 4/4/99 10/65/100
s 2
f 20/20/75 19/49/74 10/10/50 35/35/91
s 1
f 21/21/77 20/20/76 35/35/93 36/36/92
s 3
f 36/36/94 11/48/56 22/22/79 21/21/78
s 11
f 11/11/101 6/6/102 23/23/81 22/57/80
s 5
f 40/53/40 23/23/39 6/6/103 8/8/104
s off
f 39/54/105 40/53/106 8/8/107 2/2/108
f 24/24/109 40/40/110 43/42/111 41/41/112
f 40/40/113 39/39/114 44/43/115 43/42/116
f 39/39/117 17/17/118 42/44/119 44/43/120
f 37/37/121 38/38/122 45/46/123 46/45/124
f 38/38/125 24/24/126 41/41/127 45/46/128
f 17/17/129 37/37/130 46/45/131 42/44/132
